<svg width="128" height="240" viewBox="0 0 128 240" fill="none" xmlns="http://www.w3.org/2000/svg">
<path fill-rule="evenodd" clip-rule="evenodd" d="M17.3031 0.273438H109.793C118.663 0.273437 125.854 7.1064 125.854 15.5353V224.465C125.854 232.894 118.663 239.727 109.793 239.727H17.3031C8.43276 239.727 1.24194 232.894 1.24194 224.465V15.5353C1.24194 7.1064 8.43276 0.273438 17.3031 0.273438Z" fill="#213648"/>
<path opacity="0.595562" fill-rule="evenodd" clip-rule="evenodd" d="M110.151 0H16.8903C12.5363 0.263499 8.5207 2.23533 4.84363 5.91549C7.2084 3.86683 11.4262 1.12539 17.0026 1.12539C17.0026 1.12539 106.321 1.12539 110.038 1.12539C115.615 1.12539 119.833 3.86683 122.197 5.91549C118.52 2.23533 114.505 0.263499 110.151 0Z" fill="url(#paint0_linear_0_892)" fill-opacity="0.65"/>
<path opacity="0.75" fill-rule="evenodd" clip-rule="evenodd" d="M123.331 222.082V16.7914C123.331 11.2832 121.291 9.24705 120.074 7.93956C118.857 6.63207 118.805 5.96519 120.554 6.95237C122.302 7.93956 125.799 10.8148 125.799 16.7914V222.082C125.799 228.059 122.302 230.934 120.554 231.921C118.805 232.908 118.857 232.241 120.074 230.934C121.291 229.626 123.331 227.59 123.331 222.082Z" fill="url(#paint1_linear_0_892)"/>
<path opacity="0.75" fill-rule="evenodd" clip-rule="evenodd" d="M3.71049 222.082V16.7914C3.71049 11.2832 5.75025 9.24705 6.96708 7.93956C8.1839 6.63207 8.2357 5.96519 6.48733 6.95237C4.73896 7.93956 1.24195 10.8148 1.24195 16.7914V222.082C1.24195 228.059 4.73896 230.934 6.48733 231.921C8.2357 232.908 8.1839 232.241 6.96708 230.934C5.75025 229.626 3.71049 227.59 3.71049 222.082Z" fill="url(#paint2_linear_0_892)"/>
<path fill-rule="evenodd" clip-rule="evenodd" d="M0 49.9481C0 49.2851 0.537505 48.7476 1.20055 48.7476C1.8636 48.7476 2.4011 49.2851 2.4011 49.9481V78.4354C2.4011 79.0984 1.8636 79.6359 1.20055 79.6359C0.537505 79.6359 0 79.0984 0 78.4354V49.9481Z" fill="#2E423C"/>
<path fill-rule="evenodd" clip-rule="evenodd" d="M124.557 75.1415C124.557 74.4784 125.095 73.9409 125.758 73.9409C126.421 73.9409 126.958 74.4784 126.958 75.1415V95.2764C126.958 95.9394 126.421 96.4769 125.758 96.4769C125.095 96.4769 124.557 95.9394 124.557 95.2764V75.1415Z" fill="#2E423C"/>
<path fill-rule="evenodd" clip-rule="evenodd" d="M52.5612 5.97314L16.5746 5.97314C11.2039 5.97314 7.29065 9.60353 7.29065 14.345V217.092C7.29065 223.274 13.3374 228.752 20.1747 228.752H106.909C113.495 228.752 119.793 223.232 119.793 217.092V14.8931C119.793 9.21004 115.542 6.00694 110.509 5.97314L73.9521 5.97314C73.8136 5.99567 71.3023 7.02038 70.241 9.60353C69.1796 12.1867 67.044 14.2459 64.7059 14.2459H61.9902C60.8788 14.2459 57.9528 13.1756 56.4711 9.60353C54.9895 6.03143 52.6997 5.99567 52.5612 5.97314Z" fill="white"/>
<mask id="mask0_0_892" style="mask-type:luminance" maskUnits="userSpaceOnUse" x="7" y="5" width="113" height="224">
<path fill-rule="evenodd" clip-rule="evenodd" d="M52.5612 5.97314L16.5746 5.97314C11.2039 5.97314 7.29065 9.60353 7.29065 14.345V217.092C7.29065 223.274 13.3374 228.752 20.1747 228.752H106.909C113.495 228.752 119.793 223.232 119.793 217.092V14.8931C119.793 9.21004 115.542 6.00694 110.509 5.97314L73.9521 5.97314C73.8136 5.99567 71.3023 7.02038 70.241 9.60353C69.1796 12.1867 67.044 14.2459 64.7059 14.2459H61.9902C60.8788 14.2459 57.9528 13.1756 56.4711 9.60353C54.9895 6.03143 52.6997 5.99567 52.5612 5.97314Z" fill="white"/>
</mask>
<g mask="url(#mask0_0_892)">
<rect x="7" y="6" width="113" height="223" fill="url(#paint3_linear_0_892)"/>
<path fill-rule="evenodd" clip-rule="evenodd" d="M58.7615 65.3105V67.1998H50.5433V65.5256C50.5433 64.9624 50.6491 64.4747 50.8606 64.0625C51.0721 63.6504 51.352 63.292 51.7002 62.9873C52.0485 62.6827 52.4302 62.4152 52.8455 62.1848C53.2608 61.9544 53.6774 61.7368 54.0953 61.532C54.5131 61.3272 54.8962 61.1211 55.2444 60.9137C55.5926 60.7064 55.8725 60.4747 56.084 60.2187C56.2955 59.9627 56.4013 59.6606 56.4013 59.3124C56.4013 58.867 56.2452 58.5035 55.9331 58.2219C55.621 57.9403 55.1941 57.7995 54.6524 57.7995C54.0901 57.7995 53.6129 57.9608 53.2208 58.2833C52.8287 58.6059 52.5863 59.0923 52.4934 59.7425H50.3344C50.3447 59.036 50.5111 58.3947 50.8335 57.8187C51.156 57.2427 51.6396 56.7857 52.2845 56.4478C52.9293 56.1099 53.7393 55.9409 54.7143 55.9409C55.5501 55.9409 56.271 56.0817 56.8772 56.3633C57.4834 56.6449 57.9516 57.0366 58.2817 57.5384C58.6119 58.0401 58.777 58.6264 58.777 59.2971C58.777 59.8552 58.6738 60.3364 58.4675 60.7409C58.2611 61.1454 57.9877 61.491 57.6472 61.7777C57.3067 62.0644 56.9327 62.3153 56.5251 62.5304C56.1176 62.7454 55.7113 62.9451 55.3063 63.1294C54.9013 63.3137 54.5286 63.5019 54.1881 63.6939C53.8476 63.8859 53.5742 64.1022 53.3679 64.3428C53.1615 64.5835 53.0583 64.8728 53.0583 65.2107V65.3105H58.7615ZM47.9974 56.0945V67.1998H45.7068V58.8824H43.7103V57.6152C44.35 57.6152 44.8672 57.555 45.2619 57.4347C45.6565 57.3144 45.9519 57.1403 46.1479 56.9124C46.344 56.6846 46.46 56.412 46.4962 56.0945H47.9974ZM62.7391 61.8545V59.4507H60.2628V61.8545H62.7391ZM62.7391 64.7576V67.1537H60.2628V64.7576H62.7391ZM71.6537 67.1998V64.7422H73.3794V62.8606H71.6537V56.0945H69.4328L64.3332 62.899V64.7422H69.4869L69.4792 67.1998H71.6537ZM66.4225 62.8606H69.4869V58.7902L66.4225 62.8606ZM78.6105 67.3688C79.5907 67.3688 80.4342 67.1499 81.141 66.7121C81.8478 66.2744 82.3907 65.6139 82.7699 64.7307C83.1491 63.8475 83.3387 62.7428 83.3387 61.4168C83.3387 60.3057 83.1543 59.3393 82.7854 58.5176C82.4165 57.6958 81.8877 57.0609 81.199 56.6129C80.5103 56.1649 79.6913 55.9409 78.7421 55.9409C77.896 55.9409 77.1583 56.1022 76.5289 56.4248C75.8995 56.7473 75.4094 57.1928 75.0586 57.7611C74.7078 58.3294 74.5324 58.9771 74.5324 59.7041C74.5324 60.426 74.6988 61.0494 75.0315 61.5742C75.3643 62.099 75.8234 62.5035 76.409 62.7876C76.9945 63.0718 77.6664 63.2139 78.4248 63.2139C78.8427 63.2139 79.2219 63.1588 79.5623 63.0488C79.9028 62.9387 80.2008 62.7825 80.4561 62.5803C80.7115 62.378 80.9114 62.1412 81.0559 61.8699C81.1178 62.7556 81.0468 63.4724 80.8431 64.0203C80.6393 64.5681 80.3349 64.9675 79.9299 65.2184C79.5249 65.4692 79.0542 65.5947 78.5177 65.5947C78.0327 65.5947 77.6303 65.4603 77.3105 65.1915C76.9906 64.9227 76.7843 64.5732 76.6914 64.1432H74.5401C74.5866 64.7934 74.8007 65.3604 75.1824 65.8443C75.5642 66.3281 76.0569 66.7032 76.6604 66.9694C77.264 67.2356 77.9141 67.3688 78.6105 67.3688ZM77.473 60.9521C77.8135 61.2721 78.2597 61.4321 78.8117 61.4321C79.1264 61.4321 79.4321 61.3617 79.7287 61.2209C80.0254 61.0801 80.2691 60.9022 80.46 60.6872C80.6509 60.4721 80.7463 60.2494 80.7463 60.019C80.7515 59.5224 80.6728 59.0961 80.5103 58.7403C80.3478 58.3844 80.1208 58.1118 79.8293 57.9224C79.5378 57.7329 79.1986 57.6382 78.8117 57.6382C78.4558 57.6382 78.1385 57.7201 77.8599 57.884C77.5813 58.0478 77.3621 58.2782 77.2021 58.5752C77.0422 58.8721 76.9622 59.2152 76.9622 59.6043C76.9622 60.1828 77.1325 60.6321 77.473 60.9521Z" fill="white"/>
</g>
<g clip-path="url(#clip0_0_892)">
<g filter="url(#filter0_d_0_892)">
<rect x="10.2443" y="80" width="105.004" height="42.5532" rx="2" fill="#FBFCFE"/>
</g>
<path d="M18.115 97.31V96.885H20.85V97.31H19.7475V100.5H19.2825V97.31H18.115ZM21.3513 100.5V96.785H21.8013V98.295C21.8446 98.2233 21.9029 98.1567 21.9763 98.095C22.0496 98.0317 22.1388 97.9808 22.2438 97.9425C22.3488 97.9025 22.4704 97.8825 22.6088 97.8825C22.7771 97.8825 22.9296 97.9142 23.0663 97.9775C23.2029 98.0392 23.3113 98.1275 23.3913 98.2425C23.4713 98.3575 23.5113 98.4942 23.5113 98.6525V100.5H23.0488V98.745C23.0488 98.59 22.9954 98.4708 22.8888 98.3875C22.7838 98.3025 22.6463 98.26 22.4763 98.26C22.3613 98.26 22.2529 98.2792 22.1513 98.3175C22.0496 98.3542 21.9671 98.4108 21.9038 98.4875C21.8421 98.5625 21.8113 98.6583 21.8113 98.775V100.5H21.3513ZM24.5621 99.315C24.5621 99.4783 24.5888 99.6267 24.6421 99.76C24.6971 99.8917 24.7796 99.9967 24.8896 100.075C25.0013 100.153 25.1404 100.192 25.3071 100.192C25.4721 100.192 25.6138 100.154 25.7321 100.077C25.8521 100.001 25.9288 99.89 25.9621 99.745H26.3996C26.3679 99.92 26.2979 100.067 26.1896 100.188C26.0813 100.307 25.9504 100.398 25.7971 100.46C25.6438 100.52 25.4838 100.55 25.3171 100.55C25.0754 100.55 24.8629 100.498 24.6796 100.392C24.4963 100.287 24.3529 100.137 24.2496 99.94C24.1463 99.7433 24.0946 99.5075 24.0946 99.2325C24.0946 98.9608 24.1413 98.7225 24.2346 98.5175C24.3279 98.3125 24.4629 98.1525 24.6396 98.0375C24.8179 97.9225 25.0321 97.865 25.2821 97.865C25.5254 97.865 25.7313 97.9175 25.8996 98.0225C26.0679 98.1275 26.1954 98.2758 26.2821 98.4675C26.3704 98.6575 26.4146 98.8833 26.4146 99.145V99.315H24.5621ZM24.5646 99.0025H25.9696C25.9696 98.8542 25.9446 98.7208 25.8946 98.6025C25.8446 98.4825 25.7679 98.3883 25.6646 98.32C25.5629 98.25 25.4346 98.215 25.2796 98.215C25.1179 98.215 24.9838 98.2542 24.8771 98.3325C24.7721 98.4092 24.6929 98.5083 24.6396 98.63C24.5879 98.75 24.5629 98.8742 24.5646 99.0025ZM28.1677 101.305V97.915H28.6277L28.6327 98.365C28.6627 98.3117 28.701 98.2558 28.7477 98.1975C28.796 98.1392 28.8543 98.085 28.9227 98.035C28.9927 97.985 29.0735 97.9442 29.1652 97.9125C29.2585 97.8808 29.3643 97.865 29.4827 97.865C29.6893 97.865 29.871 97.9125 30.0277 98.0075C30.186 98.1008 30.3093 98.2442 30.3977 98.4375C30.486 98.6308 30.5302 98.8758 30.5302 99.1725C30.5302 99.4692 30.4868 99.72 30.4002 99.925C30.3152 100.128 30.1918 100.283 30.0302 100.39C29.8685 100.497 29.6735 100.55 29.4452 100.55C29.3302 100.55 29.2277 100.533 29.1377 100.5C29.0493 100.468 28.9718 100.427 28.9052 100.375C28.8402 100.322 28.7852 100.265 28.7402 100.205C28.6968 100.145 28.661 100.087 28.6327 100.032V101.305H28.1677ZM29.3577 100.19C29.571 100.19 29.7452 100.109 29.8802 99.9475C30.0152 99.7842 30.0827 99.5308 30.0827 99.1875C30.0827 98.8925 30.021 98.6583 29.8977 98.485C29.7743 98.3117 29.5943 98.225 29.3577 98.225C29.1177 98.225 28.936 98.3142 28.8127 98.4925C28.6893 98.6692 28.6277 98.9008 28.6277 99.1875C28.6277 99.3725 28.6552 99.5408 28.7102 99.6925C28.7652 99.8442 28.8468 99.965 28.9552 100.055C29.0635 100.145 29.1977 100.19 29.3577 100.19ZM31.8172 100.55C31.6506 100.55 31.5031 100.521 31.3747 100.462C31.2464 100.402 31.1456 100.317 31.0722 100.205C31.0006 100.093 30.9647 99.9583 30.9647 99.8C30.9647 99.5133 31.0647 99.3 31.2647 99.16C31.4647 99.02 31.7856 98.945 32.2272 98.935L32.6897 98.9225V98.72C32.6897 98.5617 32.6422 98.4367 32.5472 98.345C32.4522 98.2517 32.3047 98.205 32.1047 98.205C31.9564 98.2067 31.8256 98.2417 31.7122 98.31C31.6006 98.3783 31.5281 98.49 31.4947 98.645H31.0872C31.0972 98.4767 31.1447 98.335 31.2297 98.22C31.3147 98.1033 31.4331 98.015 31.5847 97.955C31.7381 97.895 31.9189 97.865 32.1272 97.865C32.3522 97.865 32.5389 97.8967 32.6872 97.96C32.8372 98.0233 32.9489 98.1167 33.0222 98.24C33.0972 98.3633 33.1347 98.515 33.1347 98.695V100.5H32.7397L32.7072 100.015C32.6072 100.217 32.4797 100.357 32.3247 100.435C32.1714 100.512 32.0022 100.55 31.8172 100.55ZM31.9572 100.217C32.0439 100.217 32.1297 100.202 32.2147 100.17C32.3014 100.138 32.3806 100.096 32.4522 100.042C32.5239 99.9875 32.5806 99.9267 32.6222 99.86C32.6656 99.7917 32.6881 99.7217 32.6897 99.65V99.2075L32.3047 99.215C32.1081 99.2183 31.9431 99.2383 31.8097 99.275C31.6781 99.3117 31.5789 99.3692 31.5122 99.4475C31.4472 99.5258 31.4147 99.6283 31.4147 99.755C31.4147 99.9 31.4647 100.013 31.5647 100.095C31.6664 100.177 31.7972 100.217 31.9572 100.217ZM34.0965 101.325C33.9448 101.325 33.8407 101.314 33.784 101.293C33.7273 101.271 33.699 101.26 33.699 101.26V100.96L33.9615 100.965C34.0582 100.968 34.1382 100.962 34.2015 100.945C34.2648 100.928 34.3157 100.906 34.354 100.878C34.3923 100.849 34.4215 100.818 34.4415 100.783C34.4632 100.748 34.4807 100.714 34.494 100.683L34.584 100.437L33.574 97.915H34.0415L34.804 99.91L35.5615 97.915H36.014L34.924 100.695C34.8573 100.858 34.7823 100.986 34.699 101.078C34.6173 101.169 34.5257 101.233 34.424 101.27C34.324 101.307 34.2148 101.325 34.0965 101.325ZM36.5075 100.5V97.915H36.9525V98.29C37.0242 98.1767 37.1225 98.0775 37.2475 97.9925C37.3725 97.9075 37.535 97.865 37.735 97.865C37.8283 97.865 37.9233 97.8808 38.02 97.9125C38.1183 97.9442 38.2083 97.9917 38.29 98.055C38.3717 98.1183 38.435 98.1958 38.48 98.2875C38.56 98.1608 38.6683 98.0592 38.805 97.9825C38.9417 97.9042 39.0958 97.865 39.2675 97.865C39.3575 97.865 39.4517 97.8792 39.55 97.9075C39.6483 97.9342 39.7392 97.9825 39.8225 98.0525C39.9075 98.1208 39.9767 98.2167 40.03 98.34C40.0833 98.4617 40.11 98.6183 40.11 98.81V100.5H39.645V98.855C39.645 98.6983 39.62 98.5775 39.57 98.4925C39.52 98.4058 39.4542 98.345 39.3725 98.31C39.2925 98.275 39.2067 98.2575 39.115 98.2575C39.035 98.2575 38.95 98.2733 38.86 98.305C38.77 98.3367 38.6933 98.39 38.63 98.465C38.5667 98.54 38.535 98.6425 38.535 98.7725V100.5H38.075V98.72C38.075 98.6183 38.0475 98.5333 37.9925 98.465C37.9392 98.3967 37.8717 98.345 37.79 98.31C37.71 98.275 37.63 98.2575 37.55 98.2575C37.4617 98.2575 37.3725 98.275 37.2825 98.31C37.1942 98.345 37.1192 98.4008 37.0575 98.4775C36.9975 98.5525 36.9675 98.6508 36.9675 98.7725V100.5H36.5075ZM41.1637 99.315C41.1637 99.4783 41.1903 99.6267 41.2437 99.76C41.2987 99.8917 41.3812 99.9967 41.4912 100.075C41.6028 100.153 41.742 100.192 41.9087 100.192C42.0737 100.192 42.2153 100.154 42.3337 100.077C42.4537 100.001 42.5303 99.89 42.5637 99.745H43.0012C42.9695 99.92 42.8995 100.067 42.7912 100.188C42.6828 100.307 42.552 100.398 42.3987 100.46C42.2453 100.52 42.0853 100.55 41.9187 100.55C41.677 100.55 41.4645 100.498 41.2812 100.392C41.0978 100.287 40.9545 100.137 40.8512 99.94C40.7478 99.7433 40.6962 99.5075 40.6962 99.2325C40.6962 98.9608 40.7428 98.7225 40.8362 98.5175C40.9295 98.3125 41.0645 98.1525 41.2412 98.0375C41.4195 97.9225 41.6337 97.865 41.8837 97.865C42.127 97.865 42.3328 97.9175 42.5012 98.0225C42.6695 98.1275 42.797 98.2758 42.8837 98.4675C42.972 98.6575 43.0162 98.8833 43.0162 99.145V99.315H41.1637ZM41.1662 99.0025H42.5712C42.5712 98.8542 42.5462 98.7208 42.4962 98.6025C42.4462 98.4825 42.3695 98.3883 42.2662 98.32C42.1645 98.25 42.0362 98.215 41.8812 98.215C41.7195 98.215 41.5853 98.2542 41.4787 98.3325C41.3737 98.4092 41.2945 98.5083 41.2412 98.63C41.1895 98.75 41.1645 98.8742 41.1662 99.0025ZM43.6511 100.5V97.915H44.0986V98.29C44.1402 98.2183 44.1977 98.1508 44.2711 98.0875C44.3461 98.0242 44.4361 97.9733 44.5411 97.935C44.6477 97.8967 44.7702 97.8775 44.9086 97.8775C45.0719 97.8775 45.2219 97.91 45.3586 97.975C45.4969 98.04 45.6069 98.1417 45.6886 98.28C45.7719 98.4167 45.8136 98.5933 45.8136 98.81V100.5H45.3511V98.855C45.3511 98.6533 45.2977 98.5042 45.1911 98.4075C45.0861 98.3092 44.9494 98.26 44.7811 98.26C44.6644 98.26 44.5552 98.2792 44.4536 98.3175C44.3519 98.3542 44.2694 98.4108 44.2061 98.4875C44.1427 98.5625 44.1111 98.6575 44.1111 98.7725V100.5H43.6511ZM47.728 98.2525H47.1455V99.86C47.1455 99.9517 47.1547 100.019 47.173 100.062C47.193 100.104 47.2255 100.131 47.2705 100.142C47.3172 100.154 47.3805 100.16 47.4605 100.16H47.743V100.47C47.7114 100.482 47.663 100.492 47.598 100.5C47.5347 100.508 47.4555 100.513 47.3605 100.513C47.1822 100.513 47.0439 100.488 46.9455 100.44C46.8472 100.392 46.778 100.32 46.738 100.225C46.6997 100.13 46.6805 100.013 46.6805 99.875V98.2525H46.2605V97.915H46.693L46.8055 97.1625H47.1455V97.9125H47.728V98.2525ZM49.5446 100.5V96.785H49.9946V98.295C50.0379 98.2233 50.0963 98.1567 50.1696 98.095C50.2429 98.0317 50.3321 97.9808 50.4371 97.9425C50.5421 97.9025 50.6638 97.8825 50.8021 97.8825C50.9704 97.8825 51.1229 97.9142 51.2596 97.9775C51.3963 98.0392 51.5046 98.1275 51.5846 98.2425C51.6646 98.3575 51.7046 98.4942 51.7046 98.6525V100.5H51.2421V98.745C51.2421 98.59 51.1888 98.4708 51.0821 98.3875C50.9771 98.3025 50.8396 98.26 50.6696 98.26C50.5546 98.26 50.4463 98.2792 50.3446 98.3175C50.2429 98.3542 50.1604 98.4108 50.0971 98.4875C50.0354 98.5625 50.0046 98.6583 50.0046 98.775V100.5H49.5446ZM53.1307 100.55C52.964 100.55 52.8165 100.521 52.6882 100.462C52.5599 100.402 52.459 100.317 52.3857 100.205C52.314 100.093 52.2782 99.9583 52.2782 99.8C52.2782 99.5133 52.3782 99.3 52.5782 99.16C52.7782 99.02 53.099 98.945 53.5407 98.935L54.0032 98.9225V98.72C54.0032 98.5617 53.9557 98.4367 53.8607 98.345C53.7657 98.2517 53.6182 98.205 53.4182 98.205C53.2699 98.2067 53.139 98.2417 53.0257 98.31C52.914 98.3783 52.8415 98.49 52.8082 98.645H52.4007C52.4107 98.4767 52.4582 98.335 52.5432 98.22C52.6282 98.1033 52.7465 98.015 52.8982 97.955C53.0515 97.895 53.2324 97.865 53.4407 97.865C53.6657 97.865 53.8524 97.8967 54.0007 97.96C54.1507 98.0233 54.2624 98.1167 54.3357 98.24C54.4107 98.3633 54.4482 98.515 54.4482 98.695V100.5H54.0532L54.0207 100.015C53.9207 100.217 53.7932 100.357 53.6382 100.435C53.4849 100.512 53.3157 100.55 53.1307 100.55ZM53.2707 100.217C53.3574 100.217 53.4432 100.202 53.5282 100.17C53.6149 100.138 53.694 100.096 53.7657 100.042C53.8374 99.9875 53.894 99.9267 53.9357 99.86C53.979 99.7917 54.0015 99.7217 54.0032 99.65V99.2075L53.6182 99.215C53.4215 99.2183 53.2565 99.2383 53.1232 99.275C52.9915 99.3117 52.8924 99.3692 52.8257 99.4475C52.7607 99.5258 52.7282 99.6283 52.7282 99.755C52.7282 99.9 52.7782 100.013 52.8782 100.095C52.9799 100.177 53.1107 100.217 53.2707 100.217ZM56.1115 100.55C55.9315 100.55 55.764 100.523 55.609 100.467C55.4557 100.411 55.3282 100.323 55.2265 100.205C55.1249 100.085 55.0607 99.9325 55.034 99.7475H55.454C55.4774 99.8492 55.519 99.9342 55.579 100.002C55.6407 100.069 55.7174 100.12 55.809 100.155C55.9007 100.188 56.0007 100.205 56.109 100.205C56.2824 100.205 56.4224 100.172 56.529 100.107C56.6357 100.042 56.689 99.9425 56.689 99.8075C56.689 99.7125 56.6607 99.6367 56.604 99.58C56.549 99.5217 56.4632 99.4792 56.3465 99.4525L55.8115 99.32C55.6032 99.27 55.4365 99.1917 55.3115 99.085C55.1865 98.9783 55.124 98.8292 55.124 98.6375C55.1224 98.4858 55.1582 98.3525 55.2315 98.2375C55.3049 98.1225 55.4149 98.0317 55.5615 97.965C55.7082 97.8983 55.8907 97.865 56.109 97.865C56.389 97.865 56.6149 97.9283 56.7865 98.055C56.9599 98.18 57.0499 98.3642 57.0565 98.6075H56.649C56.6324 98.4842 56.5765 98.3867 56.4815 98.315C56.3882 98.2417 56.2624 98.205 56.104 98.205C55.939 98.205 55.8049 98.2383 55.7015 98.305C55.5982 98.37 55.5465 98.4717 55.5465 98.61C55.5465 98.7017 55.5832 98.7742 55.6565 98.8275C55.7299 98.8792 55.8382 98.9225 55.9815 98.9575L56.499 99.0875C56.619 99.1192 56.7174 99.1608 56.794 99.2125C56.8724 99.2642 56.934 99.3217 56.979 99.385C57.0257 99.4483 57.0582 99.515 57.0765 99.585C57.0965 99.6533 57.1065 99.7192 57.1065 99.7825C57.1065 99.9408 57.0665 100.077 56.9865 100.192C56.9082 100.306 56.7949 100.394 56.6465 100.457C56.4999 100.519 56.3215 100.55 56.1115 100.55ZM60.1629 100.55C60.0113 100.55 59.8829 100.53 59.7779 100.49C59.6746 100.45 59.5896 100.399 59.5229 100.337C59.4563 100.274 59.4046 100.21 59.3679 100.145C59.3313 100.078 59.3046 100.02 59.2879 99.97L59.2379 100.5H58.8854V96.785H59.3504V98.325C59.3721 98.2817 59.4046 98.2342 59.4479 98.1825C59.4929 98.1308 59.5504 98.0808 59.6204 98.0325C59.6904 97.9842 59.7729 97.9442 59.8679 97.9125C59.9646 97.8808 60.0746 97.865 60.1979 97.865C60.5213 97.865 60.7779 97.9775 60.9679 98.2025C61.1596 98.4275 61.2554 98.7592 61.2554 99.1975C61.2554 99.4692 61.2146 99.7067 61.1329 99.91C61.0513 100.112 60.9296 100.269 60.7679 100.382C60.6063 100.494 60.4046 100.55 60.1629 100.55ZM60.0804 100.195C60.2904 100.195 60.4613 100.114 60.5929 99.9525C60.7246 99.7892 60.7904 99.53 60.7904 99.175C60.7904 98.8733 60.7288 98.64 60.6054 98.475C60.4838 98.3083 60.3054 98.225 60.0704 98.225C59.8988 98.225 59.7604 98.2625 59.6554 98.3375C59.5521 98.4108 59.4754 98.5183 59.4254 98.66C59.3771 98.8017 59.3521 98.9733 59.3504 99.175C59.3504 99.5367 59.4063 99.7975 59.5179 99.9575C59.6313 100.116 59.8188 100.195 60.0804 100.195ZM62.1891 99.315C62.1891 99.4783 62.2157 99.6267 62.2691 99.76C62.3241 99.8917 62.4066 99.9967 62.5166 100.075C62.6282 100.153 62.7674 100.192 62.9341 100.192C63.0991 100.192 63.2407 100.154 63.3591 100.077C63.4791 100.001 63.5557 99.89 63.5891 99.745H64.0266C63.9949 99.92 63.9249 100.067 63.8166 100.188C63.7082 100.307 63.5774 100.398 63.4241 100.46C63.2707 100.52 63.1107 100.55 62.9441 100.55C62.7024 100.55 62.4899 100.498 62.3066 100.392C62.1232 100.287 61.9799 100.137 61.8766 99.94C61.7732 99.7433 61.7216 99.5075 61.7216 99.2325C61.7216 98.9608 61.7682 98.7225 61.8616 98.5175C61.9549 98.3125 62.0899 98.1525 62.2666 98.0375C62.4449 97.9225 62.6591 97.865 62.9091 97.865C63.1524 97.865 63.3582 97.9175 63.5266 98.0225C63.6949 98.1275 63.8224 98.2758 63.9091 98.4675C63.9974 98.6575 64.0416 98.8833 64.0416 99.145V99.315H62.1891ZM62.1916 99.0025H63.5966C63.5966 98.8542 63.5716 98.7208 63.5216 98.6025C63.4716 98.4825 63.3949 98.3883 63.2916 98.32C63.1899 98.25 63.0616 98.215 62.9066 98.215C62.7449 98.215 62.6107 98.2542 62.5041 98.3325C62.3991 98.4092 62.3199 98.5083 62.2666 98.63C62.2149 98.75 62.1899 98.8742 62.1916 99.0025ZM65.0064 99.315C65.0064 99.4783 65.0331 99.6267 65.0864 99.76C65.1414 99.8917 65.2239 99.9967 65.3339 100.075C65.4456 100.153 65.5848 100.192 65.7514 100.192C65.9164 100.192 66.0581 100.154 66.1764 100.077C66.2964 100.001 66.3731 99.89 66.4064 99.745H66.8439C66.8123 99.92 66.7423 100.067 66.6339 100.188C66.5256 100.307 66.3948 100.398 66.2414 100.46C66.0881 100.52 65.9281 100.55 65.7614 100.55C65.5198 100.55 65.3073 100.498 65.1239 100.392C64.9406 100.287 64.7973 100.137 64.6939 99.94C64.5906 99.7433 64.5389 99.5075 64.5389 99.2325C64.5389 98.9608 64.5856 98.7225 64.6789 98.5175C64.7723 98.3125 64.9073 98.1525 65.0839 98.0375C65.2623 97.9225 65.4764 97.865 65.7264 97.865C65.9698 97.865 66.1756 97.9175 66.3439 98.0225C66.5123 98.1275 66.6398 98.2758 66.7264 98.4675C66.8148 98.6575 66.8589 98.8833 66.8589 99.145V99.315H65.0064ZM65.0089 99.0025H66.4139C66.4139 98.8542 66.3889 98.7208 66.3389 98.6025C66.2889 98.4825 66.2123 98.3883 66.1089 98.32C66.0073 98.25 65.8789 98.215 65.7239 98.215C65.5623 98.215 65.4281 98.2542 65.3214 98.3325C65.2164 98.4092 65.1373 98.5083 65.0839 98.63C65.0323 98.75 65.0073 98.8742 65.0089 99.0025ZM67.4938 100.5V97.915H67.9413V98.29C67.983 98.2183 68.0405 98.1508 68.1138 98.0875C68.1888 98.0242 68.2788 97.9733 68.3838 97.935C68.4905 97.8967 68.613 97.8775 68.7513 97.8775C68.9147 97.8775 69.0647 97.91 69.2013 97.975C69.3397 98.04 69.4497 98.1417 69.5313 98.28C69.6147 98.4167 69.6563 98.5933 69.6563 98.81V100.5H69.1938V98.855C69.1938 98.6533 69.1405 98.5042 69.0338 98.4075C68.9288 98.3092 68.7922 98.26 68.6238 98.26C68.5072 98.26 68.398 98.2792 68.2963 98.3175C68.1947 98.3542 68.1122 98.4108 68.0488 98.4875C67.9855 98.5625 67.9538 98.6575 67.9538 98.7725V100.5H67.4938ZM71.5319 101.305V97.915H71.9919L71.9969 98.365C72.0269 98.3117 72.0652 98.2558 72.1119 98.1975C72.1602 98.1392 72.2186 98.085 72.2869 98.035C72.3569 97.985 72.4377 97.9442 72.5294 97.9125C72.6227 97.8808 72.7286 97.865 72.8469 97.865C73.0536 97.865 73.2352 97.9125 73.3919 98.0075C73.5502 98.1008 73.6736 98.2442 73.7619 98.4375C73.8502 98.6308 73.8944 98.8758 73.8944 99.1725C73.8944 99.4692 73.8511 99.72 73.7644 99.925C73.6794 100.128 73.5561 100.283 73.3944 100.39C73.2327 100.497 73.0377 100.55 72.8094 100.55C72.6944 100.55 72.5919 100.533 72.5019 100.5C72.4136 100.468 72.3361 100.427 72.2694 100.375C72.2044 100.322 72.1494 100.265 72.1044 100.205C72.0611 100.145 72.0252 100.087 71.9969 100.032V101.305H71.5319ZM72.7219 100.19C72.9352 100.19 73.1094 100.109 73.2444 99.9475C73.3794 99.7842 73.4469 99.5308 73.4469 99.1875C73.4469 98.8925 73.3852 98.6583 73.2619 98.485C73.1386 98.3117 72.9586 98.225 72.7219 98.225C72.4819 98.225 72.3002 98.3142 72.1769 98.4925C72.0536 98.6692 71.9919 98.9008 71.9919 99.1875C71.9919 99.3725 72.0194 99.5408 72.0744 99.6925C72.1294 99.8442 72.2111 99.965 72.3194 100.055C72.4277 100.145 72.5619 100.19 72.7219 100.19ZM74.5007 100.5V97.915H74.9407V98.4125C74.984 98.2892 75.0448 98.1875 75.1232 98.1075C75.2015 98.0258 75.2907 97.965 75.3907 97.925C75.4923 97.885 75.5973 97.865 75.7057 97.865C75.744 97.865 75.7815 97.8675 75.8182 97.8725C75.8548 97.8775 75.8832 97.8858 75.9032 97.8975V98.345C75.8782 98.3333 75.8457 98.3258 75.8057 98.3225C75.7673 98.3175 75.7348 98.315 75.7082 98.315C75.6048 98.3083 75.5082 98.315 75.4182 98.335C75.3282 98.3533 75.249 98.3858 75.1807 98.4325C75.1123 98.4792 75.0582 98.5408 75.0182 98.6175C74.9798 98.6925 74.9607 98.7842 74.9607 98.8925V100.5H74.5007ZM77.408 100.55C77.1697 100.55 76.9614 100.499 76.783 100.397C76.6047 100.294 76.4664 100.143 76.368 99.945C76.2697 99.7467 76.2205 99.5042 76.2205 99.2175C76.2205 98.9475 76.2664 98.7108 76.358 98.5075C76.4497 98.3042 76.5839 98.1467 76.7605 98.035C76.9389 97.9217 77.1547 97.865 77.408 97.865C77.6464 97.865 77.853 97.9175 78.028 98.0225C78.2047 98.1258 78.3414 98.2783 78.438 98.48C78.5347 98.6817 78.583 98.9275 78.583 99.2175C78.583 99.4808 78.538 99.7125 78.448 99.9125C78.3597 100.112 78.228 100.269 78.053 100.382C77.8797 100.494 77.6647 100.55 77.408 100.55ZM77.408 100.185C77.563 100.185 77.6939 100.146 77.8005 100.067C77.9072 99.9892 77.988 99.8767 78.043 99.73C78.098 99.5833 78.1255 99.4092 78.1255 99.2075C78.1255 99.0225 78.1014 98.8567 78.053 98.71C78.0047 98.5617 77.9272 98.4442 77.8205 98.3575C77.7155 98.2708 77.578 98.2275 77.408 98.2275C77.2514 98.2275 77.1189 98.2667 77.0105 98.345C76.9022 98.4217 76.8197 98.5333 76.763 98.68C76.708 98.8267 76.6805 99.0025 76.6805 99.2075C76.6805 99.3892 76.7055 99.5542 76.7555 99.7025C76.8055 99.8508 76.8839 99.9683 76.9905 100.055C77.0972 100.142 77.2364 100.185 77.408 100.185ZM80.2182 97.865C80.4032 97.865 80.5698 97.9008 80.7182 97.9725C80.8665 98.0425 80.9873 98.1425 81.0807 98.2725C81.1757 98.4025 81.2348 98.5558 81.2582 98.7325H80.8482C80.8332 98.6425 80.7982 98.56 80.7432 98.485C80.6898 98.41 80.619 98.35 80.5307 98.305C80.4423 98.26 80.339 98.2375 80.2207 98.2375C79.999 98.2375 79.819 98.3175 79.6807 98.4775C79.5423 98.6375 79.4732 98.8825 79.4732 99.2125C79.4732 99.5108 79.5365 99.75 79.6632 99.93C79.7915 100.108 79.9798 100.197 80.2282 100.197C80.3465 100.197 80.449 100.175 80.5357 100.13C80.624 100.083 80.6948 100.022 80.7482 99.9475C80.8015 99.8708 80.8357 99.7892 80.8507 99.7025H81.2532C81.2315 99.8758 81.1732 100.026 81.0782 100.152C80.9832 100.279 80.8615 100.377 80.7132 100.447C80.5665 100.516 80.4015 100.55 80.2182 100.55C79.9865 100.55 79.7807 100.499 79.6007 100.397C79.4223 100.296 79.2823 100.146 79.1807 99.9475C79.079 99.7492 79.0282 99.5058 79.0282 99.2175C79.0282 98.9475 79.074 98.7117 79.1657 98.51C79.259 98.3067 79.394 98.1483 79.5707 98.035C79.749 97.9217 79.9648 97.865 80.2182 97.865ZM82.2135 99.315C82.2135 99.4783 82.2401 99.6267 82.2935 99.76C82.3485 99.8917 82.431 99.9967 82.541 100.075C82.6526 100.153 82.7918 100.192 82.9585 100.192C83.1235 100.192 83.2651 100.154 83.3835 100.077C83.5035 100.001 83.5801 99.89 83.6135 99.745H84.051C84.0193 99.92 83.9493 100.067 83.841 100.188C83.7326 100.307 83.6018 100.398 83.4485 100.46C83.2951 100.52 83.1351 100.55 82.9685 100.55C82.7268 100.55 82.5143 100.498 82.331 100.392C82.1476 100.287 82.0043 100.137 81.901 99.94C81.7976 99.7433 81.746 99.5075 81.746 99.2325C81.746 98.9608 81.7926 98.7225 81.886 98.5175C81.9793 98.3125 82.1143 98.1525 82.291 98.0375C82.4693 97.9225 82.6835 97.865 82.9335 97.865C83.1768 97.865 83.3826 97.9175 83.551 98.0225C83.7193 98.1275 83.8468 98.2758 83.9335 98.4675C84.0218 98.6575 84.066 98.8833 84.066 99.145V99.315H82.2135ZM82.216 99.0025H83.621C83.621 98.8542 83.596 98.7208 83.546 98.6025C83.496 98.4825 83.4193 98.3883 83.316 98.32C83.2143 98.25 83.086 98.215 82.931 98.215C82.7693 98.215 82.6351 98.2542 82.5285 98.3325C82.4235 98.4092 82.3443 98.5083 82.291 98.63C82.2393 98.75 82.2143 98.8742 82.216 99.0025ZM85.5988 100.55C85.4188 100.55 85.2513 100.523 85.0963 100.467C84.943 100.411 84.8155 100.323 84.7138 100.205C84.6122 100.085 84.548 99.9325 84.5213 99.7475H84.9413C84.9647 99.8492 85.0063 99.9342 85.0663 100.002C85.128 100.069 85.2047 100.12 85.2963 100.155C85.388 100.188 85.488 100.205 85.5963 100.205C85.7697 100.205 85.9097 100.172 86.0163 100.107C86.123 100.042 86.1763 99.9425 86.1763 99.8075C86.1763 99.7125 86.148 99.6367 86.0913 99.58C86.0363 99.5217 85.9505 99.4792 85.8338 99.4525L85.2988 99.32C85.0905 99.27 84.9238 99.1917 84.7988 99.085C84.6738 98.9783 84.6113 98.8292 84.6113 98.6375C84.6097 98.4858 84.6455 98.3525 84.7188 98.2375C84.7922 98.1225 84.9022 98.0317 85.0488 97.965C85.1955 97.8983 85.378 97.865 85.5963 97.865C85.8763 97.865 86.1022 97.9283 86.2738 98.055C86.4472 98.18 86.5372 98.3642 86.5438 98.6075H86.1363C86.1197 98.4842 86.0638 98.3867 85.9688 98.315C85.8755 98.2417 85.7497 98.205 85.5913 98.205C85.4263 98.205 85.2922 98.2383 85.1888 98.305C85.0855 98.37 85.0338 98.4717 85.0338 98.61C85.0338 98.7017 85.0705 98.7742 85.1438 98.8275C85.2172 98.8792 85.3255 98.9225 85.4688 98.9575L85.9863 99.0875C86.1063 99.1192 86.2047 99.1608 86.2813 99.2125C86.3597 99.2642 86.4213 99.3217 86.4663 99.385C86.513 99.4483 86.5455 99.515 86.5638 99.585C86.5838 99.6533 86.5938 99.7192 86.5938 99.7825C86.5938 99.9408 86.5538 100.077 86.4738 100.192C86.3955 100.306 86.2822 100.394 86.1338 100.457C85.9872 100.519 85.8088 100.55 85.5988 100.55ZM88.1135 100.55C87.9335 100.55 87.766 100.523 87.611 100.467C87.4576 100.411 87.3301 100.323 87.2285 100.205C87.1268 100.085 87.0626 99.9325 87.036 99.7475H87.456C87.4793 99.8492 87.521 99.9342 87.581 100.002C87.6426 100.069 87.7193 100.12 87.811 100.155C87.9026 100.188 88.0026 100.205 88.111 100.205C88.2843 100.205 88.4243 100.172 88.531 100.107C88.6376 100.042 88.691 99.9425 88.691 99.8075C88.691 99.7125 88.6626 99.6367 88.606 99.58C88.551 99.5217 88.4651 99.4792 88.3485 99.4525L87.8135 99.32C87.6051 99.27 87.4385 99.1917 87.3135 99.085C87.1885 98.9783 87.126 98.8292 87.126 98.6375C87.1243 98.4858 87.1601 98.3525 87.2335 98.2375C87.3068 98.1225 87.4168 98.0317 87.5635 97.965C87.7101 97.8983 87.8926 97.865 88.111 97.865C88.391 97.865 88.6168 97.9283 88.7885 98.055C88.9618 98.18 89.0518 98.3642 89.0585 98.6075H88.651C88.6343 98.4842 88.5785 98.3867 88.4835 98.315C88.3901 98.2417 88.2643 98.205 88.106 98.205C87.941 98.205 87.8068 98.2383 87.7035 98.305C87.6001 98.37 87.5485 98.4717 87.5485 98.61C87.5485 98.7017 87.5851 98.7742 87.6585 98.8275C87.7318 98.8792 87.8401 98.9225 87.9835 98.9575L88.501 99.0875C88.621 99.1192 88.7193 99.1608 88.796 99.2125C88.8743 99.2642 88.936 99.3217 88.981 99.385C89.0276 99.4483 89.0601 99.515 89.0785 99.585C89.0985 99.6533 89.1085 99.7192 89.1085 99.7825C89.1085 99.9408 89.0685 100.077 88.9885 100.192C88.9101 100.306 88.7968 100.394 88.6485 100.457C88.5018 100.519 88.3235 100.55 88.1135 100.55ZM90.0846 99.315C90.0846 99.4783 90.1112 99.6267 90.1646 99.76C90.2196 99.8917 90.3021 99.9967 90.4121 100.075C90.5237 100.153 90.6629 100.192 90.8296 100.192C90.9946 100.192 91.1362 100.154 91.2546 100.077C91.3746 100.001 91.4512 99.89 91.4846 99.745H91.9221C91.8904 99.92 91.8204 100.067 91.7121 100.188C91.6037 100.307 91.4729 100.398 91.3196 100.46C91.1662 100.52 91.0062 100.55 90.8396 100.55C90.5979 100.55 90.3854 100.498 90.2021 100.392C90.0187 100.287 89.8754 100.137 89.7721 99.94C89.6687 99.7433 89.6171 99.5075 89.6171 99.2325C89.6171 98.9608 89.6637 98.7225 89.7571 98.5175C89.8504 98.3125 89.9854 98.1525 90.1621 98.0375C90.3404 97.9225 90.5546 97.865 90.8046 97.865C91.0479 97.865 91.2537 97.9175 91.4221 98.0225C91.5904 98.1275 91.7179 98.2758 91.8046 98.4675C91.8929 98.6575 91.9371 98.8833 91.9371 99.145V99.315H90.0846ZM90.0871 99.0025H91.4921C91.4921 98.8542 91.4671 98.7208 91.4171 98.6025C91.3671 98.4825 91.2904 98.3883 91.1871 98.32C91.0854 98.25 90.9571 98.215 90.8021 98.215C90.6404 98.215 90.5062 98.2542 90.3996 98.3325C90.2946 98.4092 90.2154 98.5083 90.1621 98.63C90.1104 98.75 90.0854 98.8742 90.0871 99.0025ZM93.5045 100.55C93.1695 100.55 92.9036 100.435 92.707 100.205C92.5103 99.975 92.412 99.6392 92.412 99.1975C92.412 98.9292 92.4511 98.695 92.5295 98.495C92.6095 98.295 92.7278 98.14 92.8845 98.03C93.0411 97.92 93.2361 97.865 93.4695 97.865C93.5928 97.865 93.702 97.8808 93.797 97.9125C93.8936 97.9442 93.977 97.9842 94.047 98.0325C94.117 98.0808 94.1736 98.1308 94.217 98.1825C94.262 98.2342 94.2953 98.2817 94.317 98.325V96.785H94.782V100.5H94.4295L94.3795 99.97C94.3628 100.02 94.3361 100.078 94.2995 100.145C94.2628 100.21 94.2111 100.274 94.1445 100.337C94.0778 100.399 93.992 100.45 93.887 100.49C93.7836 100.53 93.6561 100.55 93.5045 100.55ZM93.587 100.195C93.8486 100.195 94.0353 100.116 94.147 99.9575C94.2603 99.7975 94.317 99.5367 94.317 99.175C94.3153 98.9733 94.2895 98.8017 94.2395 98.66C94.1911 98.5183 94.1145 98.4108 94.0095 98.3375C93.9061 98.2625 93.7686 98.225 93.597 98.225C93.3836 98.225 93.2103 98.3008 93.077 98.4525C92.9436 98.6042 92.877 98.845 92.877 99.175C92.877 99.4983 92.937 99.7492 93.057 99.9275C93.1786 100.106 93.3553 100.195 93.587 100.195ZM95.4381 100.5V99.91H95.9881V100.5H95.4381ZM18.115 104.31V103.885H20.85V104.31H19.7475V107.5H19.2825V104.31H18.115ZM21.3513 107.5V103.785H21.8013V105.295C21.8446 105.223 21.9029 105.157 21.9763 105.095C22.0496 105.032 22.1388 104.981 22.2438 104.942C22.3488 104.902 22.4704 104.882 22.6088 104.882C22.7771 104.882 22.9296 104.914 23.0663 104.977C23.2029 105.039 23.3113 105.127 23.3913 105.242C23.4713 105.357 23.5113 105.494 23.5113 105.652V107.5H23.0488V105.745C23.0488 105.59 22.9954 105.471 22.8888 105.387C22.7838 105.302 22.6463 105.26 22.4763 105.26C22.3613 105.26 22.2529 105.279 22.1513 105.317C22.0496 105.354 21.9671 105.411 21.9038 105.487C21.8421 105.562 21.8113 105.658 21.8113 105.775V107.5H21.3513ZM24.5621 106.315C24.5621 106.478 24.5888 106.627 24.6421 106.76C24.6971 106.892 24.7796 106.997 24.8896 107.075C25.0013 107.153 25.1404 107.192 25.3071 107.192C25.4721 107.192 25.6138 107.154 25.7321 107.077C25.8521 107.001 25.9288 106.89 25.9621 106.745H26.3996C26.3679 106.92 26.2979 107.067 26.1896 107.188C26.0813 107.307 25.9504 107.398 25.7971 107.46C25.6438 107.52 25.4838 107.55 25.3171 107.55C25.0754 107.55 24.8629 107.498 24.6796 107.392C24.4963 107.287 24.3529 107.137 24.2496 106.94C24.1463 106.743 24.0946 106.507 24.0946 106.232C24.0946 105.961 24.1413 105.722 24.2346 105.517C24.3279 105.312 24.4629 105.152 24.6396 105.037C24.8179 104.922 25.0321 104.865 25.2821 104.865C25.5254 104.865 25.7313 104.917 25.8996 105.022C26.0679 105.127 26.1954 105.276 26.2821 105.467C26.3704 105.657 26.4146 105.883 26.4146 106.145V106.315H24.5621ZM24.5646 106.002H25.9696C25.9696 105.854 25.9446 105.721 25.8946 105.602C25.8446 105.482 25.7679 105.388 25.6646 105.32C25.5629 105.25 25.4346 105.215 25.2796 105.215C25.1179 105.215 24.9838 105.254 24.8771 105.332C24.7721 105.409 24.6929 105.508 24.6396 105.63C24.5879 105.75 24.5629 105.874 24.5646 106.002ZM29.481 105.252H28.8985V106.86C28.8985 106.952 28.9076 107.019 28.926 107.062C28.946 107.104 28.9785 107.131 29.0235 107.142C29.0701 107.154 29.1335 107.16 29.2135 107.16H29.496V107.47C29.4643 107.482 29.416 107.492 29.351 107.5C29.2876 107.508 29.2085 107.513 29.1135 107.513C28.9351 107.513 28.7968 107.488 28.6985 107.44C28.6001 107.392 28.531 107.32 28.491 107.225C28.4526 107.13 28.4335 107.013 28.4335 106.875V105.252H28.0135V104.915H28.446L28.5585 104.162H28.8985V104.912H29.481V105.252ZM31.1043 107.55C30.866 107.55 30.6577 107.499 30.4793 107.397C30.301 107.294 30.1627 107.143 30.0643 106.945C29.966 106.747 29.9168 106.504 29.9168 106.217C29.9168 105.947 29.9627 105.711 30.0543 105.507C30.146 105.304 30.2802 105.147 30.4568 105.035C30.6352 104.922 30.851 104.865 31.1043 104.865C31.3427 104.865 31.5493 104.917 31.7243 105.022C31.901 105.126 32.0377 105.278 32.1343 105.48C32.231 105.682 32.2793 105.927 32.2793 106.217C32.2793 106.481 32.2343 106.712 32.1443 106.912C32.056 107.112 31.9243 107.269 31.7493 107.382C31.576 107.494 31.361 107.55 31.1043 107.55ZM31.1043 107.185C31.2593 107.185 31.3902 107.146 31.4968 107.067C31.6035 106.989 31.6843 106.877 31.7393 106.73C31.7943 106.583 31.8218 106.409 31.8218 106.207C31.8218 106.022 31.7977 105.857 31.7493 105.71C31.701 105.562 31.6235 105.444 31.5168 105.357C31.4118 105.271 31.2743 105.227 31.1043 105.227C30.9477 105.227 30.8152 105.267 30.7068 105.345C30.5985 105.422 30.516 105.533 30.4593 105.68C30.4043 105.827 30.3768 106.002 30.3768 106.207C30.3768 106.389 30.4018 106.554 30.4518 106.702C30.5018 106.851 30.5802 106.968 30.6868 107.055C30.7935 107.142 30.9327 107.185 31.1043 107.185ZM34.1148 105.252H33.5323V106.86C33.5323 106.952 33.5414 107.019 33.5598 107.062C33.5798 107.104 33.6123 107.131 33.6573 107.142C33.7039 107.154 33.7673 107.16 33.8473 107.16H34.1298V107.47C34.0981 107.482 34.0498 107.492 33.9848 107.5C33.9214 107.508 33.8423 107.513 33.7473 107.513C33.5689 107.513 33.4306 107.488 33.3323 107.44C33.2339 107.392 33.1648 107.32 33.1248 107.225C33.0864 107.13 33.0673 107.013 33.0673 106.875V105.252H32.6473V104.915H33.0798L33.1923 104.162H33.5323V104.912H34.1148V105.252ZM35.4745 107.55C35.3078 107.55 35.1603 107.521 35.032 107.462C34.9036 107.402 34.8028 107.317 34.7295 107.205C34.6578 107.093 34.622 106.958 34.622 106.8C34.622 106.513 34.722 106.3 34.922 106.16C35.122 106.02 35.4428 105.945 35.8845 105.935L36.347 105.922V105.72C36.347 105.562 36.2995 105.437 36.2045 105.345C36.1095 105.252 35.962 105.205 35.762 105.205C35.6136 105.207 35.4828 105.242 35.3695 105.31C35.2578 105.378 35.1853 105.49 35.152 105.645H34.7445C34.7545 105.477 34.802 105.335 34.887 105.22C34.972 105.103 35.0903 105.015 35.242 104.955C35.3953 104.895 35.5761 104.865 35.7845 104.865C36.0095 104.865 36.1961 104.897 36.3445 104.96C36.4945 105.023 36.6061 105.117 36.6795 105.24C36.7545 105.363 36.792 105.515 36.792 105.695V107.5H36.397L36.3645 107.015C36.2645 107.217 36.137 107.357 35.982 107.435C35.8286 107.512 35.6595 107.55 35.4745 107.55ZM35.6145 107.217C35.7011 107.217 35.787 107.202 35.872 107.17C35.9586 107.138 36.0378 107.096 36.1095 107.042C36.1811 106.987 36.2378 106.927 36.2795 106.86C36.3228 106.792 36.3453 106.722 36.347 106.65V106.207L35.962 106.215C35.7653 106.218 35.6003 106.238 35.467 106.275C35.3353 106.312 35.2361 106.369 35.1695 106.447C35.1045 106.526 35.072 106.628 35.072 106.755C35.072 106.9 35.122 107.013 35.222 107.095C35.3236 107.177 35.4545 107.217 35.6145 107.217ZM38.2342 107.533C38.0942 107.533 37.9809 107.513 37.8942 107.475C37.8092 107.437 37.7434 107.385 37.6967 107.32C37.6517 107.255 37.6209 107.181 37.6042 107.097C37.5892 107.012 37.5817 106.925 37.5817 106.835V103.785H38.0367V106.79C38.0367 106.92 38.0617 107.017 38.1117 107.082C38.1634 107.147 38.2351 107.183 38.3267 107.19L38.4667 107.192V107.492C38.4284 107.504 38.3884 107.513 38.3467 107.52C38.3051 107.528 38.2676 107.533 38.2342 107.533ZM40.9383 107.55C40.7717 107.55 40.6242 107.521 40.4958 107.462C40.3675 107.402 40.2667 107.317 40.1933 107.205C40.1217 107.093 40.0858 106.958 40.0858 106.8C40.0858 106.513 40.1858 106.3 40.3858 106.16C40.5858 106.02 40.9067 105.945 41.3483 105.935L41.8108 105.922V105.72C41.8108 105.562 41.7633 105.437 41.6683 105.345C41.5733 105.252 41.4258 105.205 41.2258 105.205C41.0775 105.207 40.9467 105.242 40.8333 105.31C40.7217 105.378 40.6492 105.49 40.6158 105.645H40.2083C40.2183 105.477 40.2658 105.335 40.3508 105.22C40.4358 105.103 40.5542 105.015 40.7058 104.955C40.8592 104.895 41.04 104.865 41.2483 104.865C41.4733 104.865 41.66 104.897 41.8083 104.96C41.9583 105.023 42.07 105.117 42.1433 105.24C42.2183 105.363 42.2558 105.515 42.2558 105.695V107.5H41.8608L41.8283 107.015C41.7283 107.217 41.6008 107.357 41.4458 107.435C41.2925 107.512 41.1233 107.55 40.9383 107.55ZM41.0783 107.217C41.165 107.217 41.2508 107.202 41.3358 107.17C41.4225 107.138 41.5017 107.096 41.5733 107.042C41.645 106.987 41.7017 106.927 41.7433 106.86C41.7867 106.792 41.8092 106.722 41.8108 106.65V106.207L41.4258 106.215C41.2292 106.218 41.0642 106.238 40.9308 106.275C40.7992 106.312 40.7 106.369 40.6333 106.447C40.5683 106.526 40.5358 106.628 40.5358 106.755C40.5358 106.9 40.5858 107.013 40.6858 107.095C40.7875 107.177 40.9183 107.217 41.0783 107.217ZM43.0456 107.5V104.915H43.4906V105.29C43.5623 105.177 43.6606 105.077 43.7856 104.992C43.9106 104.907 44.0731 104.865 44.2731 104.865C44.3664 104.865 44.4614 104.881 44.5581 104.912C44.6564 104.944 44.7464 104.992 44.8281 105.055C44.9098 105.118 44.9731 105.196 45.0181 105.287C45.0981 105.161 45.2064 105.059 45.3431 104.982C45.4798 104.904 45.6339 104.865 45.8056 104.865C45.8956 104.865 45.9898 104.879 46.0881 104.907C46.1864 104.934 46.2773 104.982 46.3606 105.052C46.4456 105.121 46.5148 105.217 46.5681 105.34C46.6214 105.462 46.6481 105.618 46.6481 105.81V107.5H46.1831V105.855C46.1831 105.698 46.1581 105.577 46.1081 105.492C46.0581 105.406 45.9923 105.345 45.9106 105.31C45.8306 105.275 45.7448 105.257 45.6531 105.257C45.5731 105.257 45.4881 105.273 45.3981 105.305C45.3081 105.337 45.2314 105.39 45.1681 105.465C45.1048 105.54 45.0731 105.642 45.0731 105.772V107.5H44.6131V105.72C44.6131 105.618 44.5856 105.533 44.5306 105.465C44.4773 105.397 44.4098 105.345 44.3281 105.31C44.2481 105.275 44.1681 105.257 44.0881 105.257C43.9998 105.257 43.9106 105.275 43.8206 105.31C43.7323 105.345 43.6573 105.401 43.5956 105.477C43.5356 105.552 43.5056 105.651 43.5056 105.772V107.5H43.0456ZM48.3993 107.55C48.1609 107.55 47.9526 107.499 47.7743 107.397C47.5959 107.294 47.4576 107.143 47.3593 106.945C47.2609 106.747 47.2118 106.504 47.2118 106.217C47.2118 105.947 47.2576 105.711 47.3493 105.507C47.4409 105.304 47.5751 105.147 47.7518 105.035C47.9301 104.922 48.1459 104.865 48.3993 104.865C48.6376 104.865 48.8443 104.917 49.0193 105.022C49.1959 105.126 49.3326 105.278 49.4293 105.48C49.5259 105.682 49.5743 105.927 49.5743 106.217C49.5743 106.481 49.5293 106.712 49.4393 106.912C49.3509 107.112 49.2193 107.269 49.0443 107.382C48.8709 107.494 48.6559 107.55 48.3993 107.55ZM48.3993 107.185C48.5543 107.185 48.6851 107.146 48.7918 107.067C48.8984 106.989 48.9793 106.877 49.0343 106.73C49.0893 106.583 49.1168 106.409 49.1168 106.207C49.1168 106.022 49.0926 105.857 49.0443 105.71C48.9959 105.562 48.9184 105.444 48.8118 105.357C48.7068 105.271 48.5693 105.227 48.3993 105.227C48.2426 105.227 48.1101 105.267 48.0018 105.345C47.8934 105.422 47.8109 105.533 47.7543 105.68C47.6993 105.827 47.6718 106.002 47.6718 106.207C47.6718 106.389 47.6968 106.554 47.7468 106.702C47.7968 106.851 47.8751 106.968 47.9818 107.055C48.0884 107.142 48.2276 107.185 48.3993 107.185ZM51.0854 107.55C50.9504 107.548 50.8229 107.529 50.7029 107.492C50.5846 107.454 50.4796 107.398 50.3879 107.325C50.2963 107.252 50.2238 107.161 50.1704 107.052C50.1188 106.942 50.0929 106.815 50.0929 106.67V104.915H50.5554V106.622C50.5554 106.791 50.6071 106.927 50.7104 107.032C50.8154 107.137 50.9729 107.19 51.1829 107.19C51.3729 107.19 51.5254 107.141 51.6404 107.042C51.7571 106.942 51.8154 106.794 51.8154 106.597V104.915H52.2754V107.5H51.9079L51.8604 107.005C51.8288 107.135 51.7746 107.24 51.6979 107.32C51.6229 107.4 51.5321 107.459 51.4254 107.497C51.3204 107.534 51.2071 107.552 51.0854 107.55ZM53.0309 107.5V104.915H53.4784V105.29C53.5201 105.218 53.5776 105.151 53.6509 105.087C53.7259 105.024 53.8159 104.973 53.9209 104.935C54.0276 104.897 54.1501 104.877 54.2884 104.877C54.4518 104.877 54.6018 104.91 54.7384 104.975C54.8768 105.04 54.9868 105.142 55.0684 105.28C55.1518 105.417 55.1934 105.593 55.1934 105.81V107.5H54.7309V105.855C54.7309 105.653 54.6776 105.504 54.5709 105.407C54.4659 105.309 54.3293 105.26 54.1609 105.26C54.0443 105.26 53.9351 105.279 53.8334 105.317C53.7318 105.354 53.6493 105.411 53.5859 105.487C53.5226 105.562 53.4909 105.657 53.4909 105.772V107.5H53.0309ZM57.1079 105.252H56.5254V106.86C56.5254 106.952 56.5346 107.019 56.5529 107.062C56.5729 107.104 56.6054 107.131 56.6504 107.142C56.6971 107.154 56.7604 107.16 56.8404 107.16H57.1229V107.47C57.0913 107.482 57.0429 107.492 56.9779 107.5C56.9146 107.508 56.8354 107.513 56.7404 107.513C56.5621 107.513 56.4238 107.488 56.3254 107.44C56.2271 107.392 56.1579 107.32 56.1179 107.225C56.0796 107.13 56.0604 107.013 56.0604 106.875V105.252H55.6404V104.915H56.0729L56.1854 104.162H56.5254V104.912H57.1079V105.252ZM59.7935 107.55C59.4585 107.55 59.1927 107.435 58.996 107.205C58.7993 106.975 58.701 106.639 58.701 106.197C58.701 105.929 58.7402 105.695 58.8185 105.495C58.8985 105.295 59.0168 105.14 59.1735 105.03C59.3302 104.92 59.5252 104.865 59.7585 104.865C59.8818 104.865 59.991 104.881 60.086 104.912C60.1827 104.944 60.266 104.984 60.336 105.032C60.406 105.081 60.4627 105.131 60.506 105.182C60.551 105.234 60.5843 105.282 60.606 105.325V103.785H61.071V107.5H60.7185L60.6685 106.97C60.6518 107.02 60.6252 107.078 60.5885 107.145C60.5518 107.21 60.5002 107.274 60.4335 107.337C60.3668 107.399 60.281 107.45 60.176 107.49C60.0727 107.53 59.9452 107.55 59.7935 107.55ZM59.876 107.195C60.1377 107.195 60.3243 107.116 60.436 106.957C60.5493 106.797 60.606 106.537 60.606 106.175C60.6043 105.973 60.5785 105.802 60.5285 105.66C60.4802 105.518 60.4035 105.411 60.2985 105.337C60.1952 105.262 60.0577 105.225 59.886 105.225C59.6727 105.225 59.4993 105.301 59.366 105.452C59.2327 105.604 59.166 105.845 59.166 106.175C59.166 106.498 59.226 106.749 59.346 106.927C59.4677 107.106 59.6443 107.195 59.876 107.195ZM62.1646 106.315C62.1646 106.478 62.1913 106.627 62.2446 106.76C62.2996 106.892 62.3821 106.997 62.4921 107.075C62.6038 107.153 62.743 107.192 62.9096 107.192C63.0746 107.192 63.2163 107.154 63.3346 107.077C63.4546 107.001 63.5313 106.89 63.5646 106.745H64.0021C63.9705 106.92 63.9005 107.067 63.7921 107.188C63.6838 107.307 63.553 107.398 63.3996 107.46C63.2463 107.52 63.0863 107.55 62.9196 107.55C62.678 107.55 62.4655 107.498 62.2821 107.392C62.0988 107.287 61.9555 107.137 61.8521 106.94C61.7488 106.743 61.6971 106.507 61.6971 106.232C61.6971 105.961 61.7438 105.722 61.8371 105.517C61.9305 105.312 62.0655 105.152 62.2421 105.037C62.4205 104.922 62.6346 104.865 62.8846 104.865C63.128 104.865 63.3338 104.917 63.5021 105.022C63.6705 105.127 63.798 105.276 63.8846 105.467C63.973 105.657 64.0171 105.883 64.0171 106.145V106.315H62.1646ZM62.1671 106.002H63.5721C63.5721 105.854 63.5471 105.721 63.4971 105.602C63.4471 105.482 63.3705 105.388 63.2671 105.32C63.1655 105.25 63.0371 105.215 62.8821 105.215C62.7205 105.215 62.5863 105.254 62.4796 105.332C62.3746 105.409 62.2955 105.508 62.2421 105.63C62.1905 105.75 62.1655 105.874 62.1671 106.002ZM65.5845 107.55C65.2495 107.55 64.9837 107.435 64.787 107.205C64.5904 106.975 64.492 106.639 64.492 106.197C64.492 105.929 64.5312 105.695 64.6095 105.495C64.6895 105.295 64.8079 105.14 64.9645 105.03C65.1212 104.92 65.3162 104.865 65.5495 104.865C65.6729 104.865 65.782 104.881 65.877 104.912C65.9737 104.944 66.057 104.984 66.127 105.032C66.197 105.081 66.2537 105.131 66.297 105.182C66.342 105.234 66.3754 105.282 66.397 105.325V103.785H66.862V107.5H66.5095L66.4595 106.97C66.4429 107.02 66.4162 107.078 66.3795 107.145C66.3429 107.21 66.2912 107.274 66.2245 107.337C66.1579 107.399 66.072 107.45 65.967 107.49C65.8637 107.53 65.7362 107.55 65.5845 107.55ZM65.667 107.195C65.9287 107.195 66.1154 107.116 66.227 106.957C66.3404 106.797 66.397 106.537 66.397 106.175C66.3954 105.973 66.3695 105.802 66.3195 105.66C66.2712 105.518 66.1945 105.411 66.0895 105.337C65.9862 105.262 65.8487 105.225 65.677 105.225C65.4637 105.225 65.2904 105.301 65.157 105.452C65.0237 105.604 64.957 105.845 64.957 106.175C64.957 106.498 65.017 106.749 65.137 106.927C65.2587 107.106 65.4354 107.195 65.667 107.195ZM68.5757 107.55C68.4407 107.548 68.3132 107.529 68.1932 107.492C68.0748 107.454 67.9698 107.398 67.8782 107.325C67.7865 107.252 67.714 107.161 67.6607 107.052C67.609 106.942 67.5832 106.815 67.5832 106.67V104.915H68.0457V106.622C68.0457 106.791 68.0973 106.927 68.2007 107.032C68.3057 107.137 68.4632 107.19 68.6732 107.19C68.8632 107.19 69.0157 107.141 69.1307 107.042C69.2473 106.942 69.3057 106.794 69.3057 106.597V104.915H69.7657V107.5H69.3982L69.3507 107.005C69.319 107.135 69.2648 107.24 69.1882 107.32C69.1132 107.4 69.0223 107.459 68.9157 107.497C68.8107 107.534 68.6973 107.552 68.5757 107.55ZM71.517 104.865C71.702 104.865 71.8687 104.901 72.017 104.972C72.1653 105.042 72.2862 105.142 72.3795 105.272C72.4745 105.402 72.5337 105.556 72.557 105.732H72.147C72.132 105.642 72.097 105.56 72.042 105.485C71.9887 105.41 71.9178 105.35 71.8295 105.305C71.7412 105.26 71.6378 105.237 71.5195 105.237C71.2978 105.237 71.1178 105.317 70.9795 105.477C70.8412 105.637 70.772 105.882 70.772 106.212C70.772 106.511 70.8353 106.75 70.962 106.93C71.0903 107.108 71.2787 107.197 71.527 107.197C71.6453 107.197 71.7478 107.175 71.8345 107.13C71.9228 107.083 71.9937 107.022 72.047 106.947C72.1003 106.871 72.1345 106.789 72.1495 106.702H72.552C72.5303 106.876 72.472 107.026 72.377 107.152C72.282 107.279 72.1603 107.377 72.012 107.447C71.8653 107.516 71.7003 107.55 71.517 107.55C71.2853 107.55 71.0795 107.499 70.8995 107.397C70.7212 107.296 70.5812 107.146 70.4795 106.947C70.3778 106.749 70.327 106.506 70.327 106.217C70.327 105.947 70.3728 105.712 70.4645 105.51C70.5578 105.307 70.6928 105.148 70.8695 105.035C71.0478 104.922 71.2637 104.865 71.517 104.865ZM74.4126 105.252H73.8301V106.86C73.8301 106.952 73.8393 107.019 73.8576 107.062C73.8776 107.104 73.9101 107.131 73.9551 107.142C74.0018 107.154 74.0651 107.16 74.1451 107.16H74.4276V107.47C74.396 107.482 74.3476 107.492 74.2826 107.5C74.2193 107.508 74.1401 107.513 74.0451 107.513C73.8668 107.513 73.7285 107.488 73.6301 107.44C73.5318 107.392 73.4626 107.32 73.4226 107.225C73.3843 107.13 73.3651 107.013 73.3651 106.875V105.252H72.9451V104.915H73.3776L73.4901 104.162H73.8301V104.912H74.4126V105.252ZM75.3385 106.315C75.3385 106.478 75.3651 106.627 75.4185 106.76C75.4735 106.892 75.556 106.997 75.666 107.075C75.7776 107.153 75.9168 107.192 76.0835 107.192C76.2485 107.192 76.3901 107.154 76.5085 107.077C76.6285 107.001 76.7051 106.89 76.7385 106.745H77.176C77.1443 106.92 77.0743 107.067 76.966 107.188C76.8576 107.307 76.7268 107.398 76.5735 107.46C76.4201 107.52 76.2601 107.55 76.0935 107.55C75.8518 107.55 75.6393 107.498 75.456 107.392C75.2726 107.287 75.1293 107.137 75.026 106.94C74.9226 106.743 74.871 106.507 74.871 106.232C74.871 105.961 74.9176 105.722 75.011 105.517C75.1043 105.312 75.2393 105.152 75.416 105.037C75.5943 104.922 75.8085 104.865 76.0585 104.865C76.3018 104.865 76.5076 104.917 76.676 105.022C76.8443 105.127 76.9718 105.276 77.0585 105.467C77.1468 105.657 77.191 105.883 77.191 106.145V106.315H75.3385ZM75.341 106.002H76.746C76.746 105.854 76.721 105.721 76.671 105.602C76.621 105.482 76.5443 105.388 76.441 105.32C76.3393 105.25 76.211 105.215 76.056 105.215C75.8943 105.215 75.7601 105.254 75.6535 105.332C75.5485 105.409 75.4693 105.508 75.416 105.63C75.3643 105.75 75.3393 105.874 75.341 106.002ZM78.7584 107.55C78.4234 107.55 78.1575 107.435 77.9609 107.205C77.7642 106.975 77.6659 106.639 77.6659 106.197C77.6659 105.929 77.705 105.695 77.7834 105.495C77.8634 105.295 77.9817 105.14 78.1384 105.03C78.295 104.92 78.49 104.865 78.7234 104.865C78.8467 104.865 78.9559 104.881 79.0509 104.912C79.1475 104.944 79.2309 104.984 79.3009 105.032C79.3709 105.081 79.4275 105.131 79.4709 105.182C79.5159 105.234 79.5492 105.282 79.5709 105.325V103.785H80.0359V107.5H79.6834L79.6334 106.97C79.6167 107.02 79.59 107.078 79.5534 107.145C79.5167 107.21 79.465 107.274 79.3984 107.337C79.3317 107.399 79.2459 107.45 79.1409 107.49C79.0375 107.53 78.91 107.55 78.7584 107.55ZM78.8409 107.195C79.1025 107.195 79.2892 107.116 79.4009 106.957C79.5142 106.797 79.5709 106.537 79.5709 106.175C79.5692 105.973 79.5434 105.802 79.4934 105.66C79.445 105.518 79.3684 105.411 79.2634 105.337C79.16 105.262 79.0225 105.225 78.8509 105.225C78.6375 105.225 78.4642 105.301 78.3309 105.452C78.1975 105.604 78.1309 105.845 78.1309 106.175C78.1309 106.498 78.1909 106.749 78.3109 106.927C78.4325 107.106 78.6092 107.195 78.8409 107.195ZM83.4118 104.915V105.252H82.7843V107.5H82.3193V105.252H81.7743V104.915H82.3193V104.515C82.3193 104.31 82.3718 104.154 82.4768 104.047C82.5818 103.939 82.7385 103.885 82.9468 103.885H83.4343L83.4368 104.212H83.0493C82.9443 104.212 82.8727 104.241 82.8343 104.297C82.796 104.354 82.7768 104.44 82.7768 104.555V104.915H83.4118ZM83.9831 107.5V104.915H84.4231V105.412C84.4664 105.289 84.5273 105.187 84.6056 105.107C84.6839 105.026 84.7731 104.965 84.8731 104.925C84.9748 104.885 85.0798 104.865 85.1881 104.865C85.2264 104.865 85.2639 104.867 85.3006 104.873C85.3373 104.877 85.3656 104.886 85.3856 104.897V105.345C85.3606 105.333 85.3281 105.326 85.2881 105.322C85.2498 105.317 85.2173 105.315 85.1906 105.315C85.0873 105.308 84.9906 105.315 84.9006 105.335C84.8106 105.353 84.7314 105.386 84.6631 105.432C84.5948 105.479 84.5406 105.541 84.5006 105.617C84.4623 105.692 84.4431 105.784 84.4431 105.892V107.5H83.9831ZM86.8905 107.55C86.6521 107.55 86.4438 107.499 86.2655 107.397C86.0871 107.294 85.9488 107.143 85.8505 106.945C85.7521 106.747 85.703 106.504 85.703 106.217C85.703 105.947 85.7488 105.711 85.8405 105.507C85.9321 105.304 86.0663 105.147 86.243 105.035C86.4213 104.922 86.6371 104.865 86.8905 104.865C87.1288 104.865 87.3355 104.917 87.5105 105.022C87.6871 105.126 87.8238 105.278 87.9205 105.48C88.0171 105.682 88.0655 105.927 88.0655 106.217C88.0655 106.481 88.0205 106.712 87.9305 106.912C87.8421 107.112 87.7105 107.269 87.5355 107.382C87.3621 107.494 87.1471 107.55 86.8905 107.55ZM86.8905 107.185C87.0455 107.185 87.1763 107.146 87.283 107.067C87.3896 106.989 87.4705 106.877 87.5255 106.73C87.5805 106.583 87.608 106.409 87.608 106.207C87.608 106.022 87.5838 105.857 87.5355 105.71C87.4871 105.562 87.4096 105.444 87.303 105.357C87.198 105.271 87.0605 105.227 86.8905 105.227C86.7338 105.227 86.6013 105.267 86.493 105.345C86.3846 105.422 86.3021 105.533 86.2455 105.68C86.1905 105.827 86.163 106.002 86.163 106.207C86.163 106.389 86.188 106.554 86.238 106.702C86.288 106.851 86.3663 106.968 86.473 107.055C86.5796 107.142 86.7188 107.185 86.8905 107.185ZM88.6706 107.5V104.915H89.1156V105.29C89.1873 105.177 89.2856 105.077 89.4106 104.992C89.5356 104.907 89.6981 104.865 89.8981 104.865C89.9914 104.865 90.0864 104.881 90.1831 104.912C90.2814 104.944 90.3714 104.992 90.4531 105.055C90.5348 105.118 90.5981 105.196 90.6431 105.287C90.7231 105.161 90.8314 105.059 90.9681 104.982C91.1048 104.904 91.2589 104.865 91.4306 104.865C91.5206 104.865 91.6148 104.879 91.7131 104.907C91.8114 104.934 91.9023 104.982 91.9856 105.052C92.0706 105.121 92.1398 105.217 92.1931 105.34C92.2464 105.462 92.2731 105.618 92.2731 105.81V107.5H91.8081V105.855C91.8081 105.698 91.7831 105.577 91.7331 105.492C91.6831 105.406 91.6173 105.345 91.5356 105.31C91.4556 105.275 91.3698 105.257 91.2781 105.257C91.1981 105.257 91.1131 105.273 91.0231 105.305C90.9331 105.337 90.8564 105.39 90.7931 105.465C90.7298 105.54 90.6981 105.642 90.6981 105.772V107.5H90.2381V105.72C90.2381 105.618 90.2106 105.533 90.1556 105.465C90.1023 105.397 90.0348 105.345 89.9531 105.31C89.8731 105.275 89.7931 105.257 89.7131 105.257C89.6248 105.257 89.5356 105.275 89.4456 105.31C89.3573 105.345 89.2823 105.401 89.2206 105.477C89.1606 105.552 89.1306 105.651 89.1306 105.772V107.5H88.6706ZM94.3699 108.325C94.2183 108.325 94.1141 108.314 94.0574 108.293C94.0008 108.271 93.9724 108.26 93.9724 108.26V107.96L94.2349 107.965C94.3316 107.968 94.4116 107.962 94.4749 107.945C94.5383 107.928 94.5891 107.906 94.6274 107.878C94.6658 107.849 94.6949 107.818 94.7149 107.783C94.7366 107.748 94.7541 107.714 94.7674 107.683L94.8574 107.437L93.8474 104.915H94.3149L95.0774 106.91L95.8349 104.915H96.2874L95.1974 107.695C95.1308 107.858 95.0558 107.986 94.9724 108.078C94.8908 108.169 94.7991 108.233 94.6974 108.27C94.5974 108.307 94.4883 108.325 94.3699 108.325ZM97.7157 107.55C97.4773 107.55 97.269 107.499 97.0907 107.397C96.9123 107.294 96.774 107.143 96.6757 106.945C96.5773 106.747 96.5282 106.504 96.5282 106.217C96.5282 105.947 96.574 105.711 96.6657 105.507C96.7573 105.304 96.8915 105.147 97.0682 105.035C97.2465 104.922 97.4623 104.865 97.7157 104.865C97.954 104.865 98.1607 104.917 98.3357 105.022C98.5123 105.126 98.649 105.278 98.7457 105.48C98.8423 105.682 98.8907 105.927 98.8907 106.217C98.8907 106.481 98.8457 106.712 98.7557 106.912C98.6673 107.112 98.5357 107.269 98.3607 107.382C98.1873 107.494 97.9723 107.55 97.7157 107.55ZM97.7157 107.185C97.8707 107.185 98.0015 107.146 98.1082 107.067C98.2148 106.989 98.2957 106.877 98.3507 106.73C98.4057 106.583 98.4332 106.409 98.4332 106.207C98.4332 106.022 98.409 105.857 98.3607 105.71C98.3123 105.562 98.2348 105.444 98.1282 105.357C98.0232 105.271 97.8857 105.227 97.7157 105.227C97.559 105.227 97.4265 105.267 97.3182 105.345C97.2098 105.422 97.1273 105.533 97.0707 105.68C97.0157 105.827 96.9882 106.002 96.9882 106.207C96.9882 106.389 97.0132 106.554 97.0632 106.702C97.1132 106.851 97.1915 106.968 97.2982 107.055C97.4048 107.142 97.544 107.185 97.7157 107.185ZM100.402 107.55C100.267 107.548 100.139 107.529 100.019 107.492C99.901 107.454 99.796 107.398 99.7043 107.325C99.6127 107.252 99.5402 107.161 99.4868 107.052C99.4352 106.942 99.4093 106.815 99.4093 106.67V104.915H99.8718V106.622C99.8718 106.791 99.9235 106.927 100.027 107.032C100.132 107.137 100.289 107.19 100.499 107.19C100.689 107.19 100.842 107.141 100.957 107.042C101.074 106.942 101.132 106.794 101.132 106.597V104.915H101.592V107.5H101.224L101.177 107.005C101.145 107.135 101.091 107.24 101.014 107.32C100.939 107.4 100.849 107.459 100.742 107.497C100.637 107.534 100.524 107.552 100.402 107.55ZM102.347 107.5V104.915H102.787V105.412C102.831 105.289 102.892 105.187 102.97 105.107C103.048 105.026 103.137 104.965 103.237 104.925C103.339 104.885 103.444 104.865 103.552 104.865C103.591 104.865 103.628 104.867 103.665 104.873C103.702 104.877 103.73 104.886 103.75 104.897V105.345C103.725 105.333 103.692 105.326 103.652 105.322C103.614 105.317 103.582 105.315 103.555 105.315C103.452 105.308 103.355 105.315 103.265 105.335C103.175 105.353 103.096 105.386 103.027 105.432C102.959 105.479 102.905 105.541 102.865 105.617C102.827 105.692 102.807 105.784 102.807 105.892V107.5H102.347ZM19.0975 114.55C18.9308 114.55 18.7833 114.521 18.655 114.462C18.5267 114.402 18.4258 114.317 18.3525 114.205C18.2808 114.093 18.245 113.958 18.245 113.8C18.245 113.513 18.345 113.3 18.545 113.16C18.745 113.02 19.0658 112.945 19.5075 112.935L19.97 112.922V112.72C19.97 112.562 19.9225 112.437 19.8275 112.345C19.7325 112.252 19.585 112.205 19.385 112.205C19.2367 112.207 19.1058 112.242 18.9925 112.31C18.8808 112.378 18.8083 112.49 18.775 112.645H18.3675C18.3775 112.477 18.425 112.335 18.51 112.22C18.595 112.103 18.7133 112.015 18.865 111.955C19.0183 111.895 19.1992 111.865 19.4075 111.865C19.6325 111.865 19.8192 111.897 19.9675 111.96C20.1175 112.023 20.2292 112.117 20.3025 112.24C20.3775 112.363 20.415 112.515 20.415 112.695V114.5H20.02L19.9875 114.015C19.8875 114.217 19.76 114.357 19.605 114.435C19.4517 114.512 19.2825 114.55 19.0975 114.55ZM19.2375 114.217C19.3242 114.217 19.41 114.202 19.495 114.17C19.5817 114.138 19.6608 114.096 19.7325 114.042C19.8042 113.987 19.8608 113.927 19.9025 113.86C19.9458 113.792 19.9683 113.722 19.97 113.65V113.207L19.585 113.215C19.3883 113.218 19.2233 113.238 19.09 113.275C18.9583 113.312 18.8592 113.369 18.7925 113.447C18.7275 113.526 18.695 113.628 18.695 113.755C18.695 113.9 18.745 114.013 18.845 114.095C18.9467 114.177 19.0775 114.217 19.2375 114.217ZM22.2348 111.865C22.4198 111.865 22.5864 111.901 22.7348 111.972C22.8831 112.042 23.0039 112.142 23.0973 112.272C23.1923 112.402 23.2514 112.556 23.2748 112.732H22.8648C22.8498 112.642 22.8148 112.56 22.7598 112.485C22.7064 112.41 22.6356 112.35 22.5473 112.305C22.4589 112.26 22.3556 112.237 22.2373 112.237C22.0156 112.237 21.8356 112.317 21.6973 112.477C21.5589 112.637 21.4898 112.882 21.4898 113.212C21.4898 113.511 21.5531 113.75 21.6798 113.93C21.8081 114.108 21.9964 114.197 22.2448 114.197C22.3631 114.197 22.4656 114.175 22.5523 114.13C22.6406 114.083 22.7114 114.022 22.7648 113.947C22.8181 113.871 22.8523 113.789 22.8673 113.702H23.2698C23.2481 113.876 23.1898 114.026 23.0948 114.152C22.9998 114.279 22.8781 114.377 22.7298 114.447C22.5831 114.516 22.4181 114.55 22.2348 114.55C22.0031 114.55 21.7973 114.499 21.6173 114.397C21.4389 114.296 21.2989 114.146 21.1973 113.947C21.0956 113.749 21.0448 113.506 21.0448 113.217C21.0448 112.947 21.0906 112.712 21.1823 112.51C21.2756 112.307 21.4106 112.148 21.5873 112.035C21.7656 111.922 21.9814 111.865 22.2348 111.865ZM24.9301 111.865C25.1151 111.865 25.2817 111.901 25.4301 111.972C25.5784 112.042 25.6992 112.142 25.7926 112.272C25.8876 112.402 25.9467 112.556 25.9701 112.732H25.5601C25.5451 112.642 25.5101 112.56 25.4551 112.485C25.4017 112.41 25.3309 112.35 25.2426 112.305C25.1542 112.26 25.0509 112.237 24.9326 112.237C24.7109 112.237 24.5309 112.317 24.3926 112.477C24.2542 112.637 24.1851 112.882 24.1851 113.212C24.1851 113.511 24.2484 113.75 24.3751 113.93C24.5034 114.108 24.6917 114.197 24.9401 114.197C25.0584 114.197 25.1609 114.175 25.2476 114.13C25.3359 114.083 25.4067 114.022 25.4601 113.947C25.5134 113.871 25.5476 113.789 25.5626 113.702H25.9651C25.9434 113.876 25.8851 114.026 25.7901 114.152C25.6951 114.279 25.5734 114.377 25.4251 114.447C25.2784 114.516 25.1134 114.55 24.9301 114.55C24.6984 114.55 24.4926 114.499 24.3126 114.397C24.1342 114.296 23.9942 114.146 23.8926 113.947C23.7909 113.749 23.7401 113.506 23.7401 113.217C23.7401 112.947 23.7859 112.712 23.8776 112.51C23.9709 112.307 24.1059 112.148 24.2826 112.035C24.4609 111.922 24.6767 111.865 24.9301 111.865ZM27.6229 114.55C27.3846 114.55 27.1762 114.499 26.9979 114.397C26.8196 114.294 26.6812 114.143 26.5829 113.945C26.4846 113.747 26.4354 113.504 26.4354 113.217C26.4354 112.947 26.4812 112.711 26.5729 112.507C26.6646 112.304 26.7987 112.147 26.9754 112.035C27.1537 111.922 27.3696 111.865 27.6229 111.865C27.8612 111.865 28.0679 111.917 28.2429 112.022C28.4196 112.126 28.5562 112.278 28.6529 112.48C28.7496 112.682 28.7979 112.927 28.7979 113.217C28.7979 113.481 28.7529 113.712 28.6629 113.912C28.5746 114.112 28.4429 114.269 28.2679 114.382C28.0946 114.494 27.8796 114.55 27.6229 114.55ZM27.6229 114.185C27.7779 114.185 27.9087 114.146 28.0154 114.067C28.1221 113.989 28.2029 113.877 28.2579 113.73C28.3129 113.583 28.3404 113.409 28.3404 113.207C28.3404 113.022 28.3162 112.857 28.2679 112.71C28.2196 112.562 28.1421 112.444 28.0354 112.357C27.9304 112.271 27.7929 112.227 27.6229 112.227C27.4662 112.227 27.3337 112.267 27.2254 112.345C27.1171 112.422 27.0346 112.533 26.9779 112.68C26.9229 112.827 26.8954 113.002 26.8954 113.207C26.8954 113.389 26.9204 113.554 26.9704 113.702C27.0204 113.851 27.0987 113.968 27.2054 114.055C27.3121 114.142 27.4512 114.185 27.6229 114.185ZM30.3091 114.55C30.1741 114.548 30.0466 114.529 29.9266 114.492C29.8082 114.454 29.7032 114.398 29.6116 114.325C29.5199 114.252 29.4474 114.161 29.3941 114.052C29.3424 113.942 29.3166 113.815 29.3166 113.67V111.915H29.7791V113.622C29.7791 113.791 29.8307 113.927 29.9341 114.032C30.0391 114.137 30.1966 114.19 30.4066 114.19C30.5966 114.19 30.7491 114.141 30.8641 114.042C30.9807 113.942 31.0391 113.794 31.0391 113.597V111.915H31.4991V114.5H31.1316L31.0841 114.005C31.0524 114.135 30.9982 114.24 30.9216 114.32C30.8466 114.4 30.7557 114.459 30.6491 114.497C30.5441 114.534 30.4307 114.552 30.3091 114.55ZM32.2546 114.5V111.915H32.7021V112.29C32.7437 112.218 32.8012 112.151 32.8746 112.087C32.9496 112.024 33.0396 111.973 33.1446 111.935C33.2512 111.897 33.3737 111.877 33.5121 111.877C33.6754 111.877 33.8254 111.91 33.9621 111.975C34.1004 112.04 34.2104 112.142 34.2921 112.28C34.3754 112.417 34.4171 112.593 34.4171 112.81V114.5H33.9546V112.855C33.9546 112.653 33.9012 112.504 33.7946 112.407C33.6896 112.309 33.5529 112.26 33.3846 112.26C33.2679 112.26 33.1587 112.279 33.0571 112.317C32.9554 112.354 32.8729 112.411 32.8096 112.487C32.7462 112.562 32.7146 112.657 32.7146 112.772V114.5H32.2546ZM36.3316 112.252H35.7491V113.86C35.7491 113.952 35.7582 114.019 35.7766 114.062C35.7966 114.104 35.8291 114.131 35.8741 114.142C35.9207 114.154 35.9841 114.16 36.0641 114.16H36.3466V114.47C36.3149 114.482 36.2666 114.492 36.2016 114.5C36.1382 114.508 36.0591 114.513 35.9641 114.513C35.7857 114.513 35.6474 114.488 35.5491 114.44C35.4507 114.392 35.3816 114.32 35.3416 114.225C35.3032 114.13 35.2841 114.013 35.2841 113.875V112.252H34.8641V111.915H35.2966L35.4091 111.162H35.7491V111.912H36.3316V112.252ZM38.6481 111.915V114.5H38.2006V111.915H38.6481ZM38.6581 110.887V111.367H38.1856V110.887H38.6581ZM40.3791 114.55C40.1991 114.55 40.0316 114.523 39.8766 114.467C39.7233 114.411 39.5958 114.323 39.4941 114.205C39.3924 114.085 39.3283 113.932 39.3016 113.747H39.7216C39.7449 113.849 39.7866 113.934 39.8466 114.002C39.9083 114.069 39.9849 114.12 40.0766 114.155C40.1683 114.188 40.2683 114.205 40.3766 114.205C40.5499 114.205 40.6899 114.172 40.7966 114.107C40.9033 114.042 40.9566 113.942 40.9566 113.807C40.9566 113.712 40.9283 113.637 40.8716 113.58C40.8166 113.522 40.7308 113.479 40.6141 113.452L40.0791 113.32C39.8708 113.27 39.7041 113.192 39.5791 113.085C39.4541 112.978 39.3916 112.829 39.3916 112.637C39.3899 112.486 39.4258 112.352 39.4991 112.237C39.5724 112.122 39.6824 112.032 39.8291 111.965C39.9758 111.898 40.1583 111.865 40.3766 111.865C40.6566 111.865 40.8824 111.928 41.0541 112.055C41.2274 112.18 41.3174 112.364 41.3241 112.607H40.9166C40.8999 112.484 40.8441 112.387 40.7491 112.315C40.6558 112.242 40.5299 112.205 40.3716 112.205C40.2066 112.205 40.0724 112.238 39.9691 112.305C39.8658 112.37 39.8141 112.472 39.8141 112.61C39.8141 112.702 39.8508 112.774 39.9241 112.827C39.9974 112.879 40.1058 112.922 40.2491 112.957L40.7666 113.088C40.8866 113.119 40.9849 113.161 41.0616 113.212C41.1399 113.264 41.2016 113.322 41.2466 113.385C41.2933 113.448 41.3258 113.515 41.3441 113.585C41.3641 113.653 41.3741 113.719 41.3741 113.782C41.3741 113.941 41.3341 114.077 41.2541 114.192C41.1758 114.306 41.0624 114.394 40.9141 114.457C40.7674 114.519 40.5891 114.55 40.3791 114.55ZM45.9948 113.123C45.9948 113.414 45.9473 113.667 45.8523 113.882C45.7573 114.096 45.6031 114.261 45.3898 114.377C45.1781 114.493 44.8973 114.55 44.5473 114.55C44.1956 114.55 43.9139 114.492 43.7023 114.375C43.4906 114.257 43.3373 114.089 43.2423 113.872C43.1489 113.656 43.1023 113.397 43.1023 113.097V110.885H43.8448V113.152C43.8448 113.422 43.9098 113.62 44.0398 113.745C44.1698 113.868 44.3389 113.93 44.5473 113.93C44.6856 113.93 44.8081 113.903 44.9148 113.85C45.0214 113.795 45.1048 113.711 45.1648 113.597C45.2264 113.482 45.2573 113.334 45.2573 113.152V110.885H45.9948V113.123ZM48.0779 114.55C47.8996 114.55 47.7246 114.528 47.5529 114.482C47.3813 114.437 47.2246 114.37 47.0829 114.28C46.9413 114.19 46.8238 114.077 46.7304 113.942C46.6388 113.807 46.5838 113.649 46.5654 113.467H47.3129C47.3379 113.577 47.3854 113.67 47.4554 113.745C47.5254 113.82 47.6138 113.877 47.7204 113.917C47.8271 113.957 47.9454 113.977 48.0754 113.977C48.2088 113.977 48.3304 113.961 48.4404 113.927C48.5504 113.894 48.6388 113.844 48.7054 113.777C48.7721 113.709 48.8054 113.624 48.8054 113.522C48.8054 113.431 48.7779 113.356 48.7229 113.297C48.6696 113.239 48.5971 113.192 48.5054 113.155C48.4138 113.118 48.3096 113.088 48.1929 113.065L47.5679 112.938C47.2946 112.886 47.0779 112.777 46.9179 112.612C46.7579 112.446 46.6754 112.224 46.6704 111.947C46.6688 111.721 46.7288 111.525 46.8504 111.36C46.9738 111.193 47.1404 111.065 47.3504 110.975C47.5621 110.885 47.7988 110.84 48.0604 110.84C48.3721 110.84 48.6338 110.889 48.8454 110.987C49.0588 111.084 49.2204 111.216 49.3304 111.382C49.4421 111.547 49.4996 111.732 49.5029 111.935H48.7704C48.7571 111.808 48.7188 111.707 48.6554 111.632C48.5921 111.557 48.5104 111.503 48.4104 111.47C48.3121 111.437 48.1996 111.42 48.0729 111.42C47.9763 111.42 47.8879 111.431 47.8079 111.452C47.7296 111.474 47.6629 111.505 47.6079 111.545C47.5529 111.583 47.5104 111.629 47.4804 111.682C47.4504 111.736 47.4354 111.796 47.4354 111.862C47.4354 111.967 47.4704 112.052 47.5404 112.117C47.6104 112.182 47.7413 112.236 47.9329 112.277L48.5529 112.405C48.7746 112.448 48.9504 112.512 49.0804 112.597C49.2121 112.682 49.3104 112.778 49.3754 112.885C49.4421 112.992 49.4854 113.101 49.5054 113.212C49.5271 113.322 49.5379 113.424 49.5379 113.517C49.5379 113.712 49.4763 113.888 49.3529 114.045C49.2313 114.2 49.0613 114.323 48.8429 114.415C48.6246 114.505 48.3696 114.55 48.0779 114.55ZM52.6093 114.55C52.176 114.55 51.8243 114.463 51.5543 114.29C51.2843 114.115 51.1293 113.846 51.0893 113.482L51.8493 113.467C51.8893 113.632 51.9751 113.758 52.1068 113.845C52.2401 113.93 52.4068 113.972 52.6068 113.972C52.7268 113.972 52.8326 113.953 52.9243 113.915C53.0176 113.875 53.091 113.822 53.1443 113.755C53.1976 113.687 53.2243 113.609 53.2243 113.522C53.2243 113.389 53.1818 113.29 53.0968 113.225C53.0118 113.158 52.881 113.105 52.7043 113.065L52.1118 112.938C51.8368 112.882 51.616 112.773 51.4493 112.61C51.2843 112.445 51.2001 112.224 51.1968 111.947C51.1951 111.721 51.256 111.525 51.3793 111.36C51.5043 111.193 51.6735 111.065 51.8868 110.975C52.1018 110.885 52.3426 110.84 52.6093 110.84C52.8826 110.84 53.1185 110.889 53.3168 110.987C53.5168 111.084 53.6701 111.215 53.7768 111.38C53.8851 111.543 53.9376 111.724 53.9343 111.922L53.1968 111.935C53.1735 111.775 53.1201 111.649 53.0368 111.557C52.9535 111.466 52.8151 111.42 52.6218 111.42C52.5218 111.42 52.4326 111.431 52.3543 111.452C52.276 111.474 52.2085 111.505 52.1518 111.545C52.0951 111.583 52.0518 111.629 52.0218 111.682C51.9935 111.736 51.9793 111.796 51.9793 111.862C51.9793 111.967 52.0143 112.051 52.0843 112.112C52.156 112.172 52.2901 112.228 52.4868 112.28L53.0693 112.422C53.3976 112.501 53.6343 112.635 53.7793 112.825C53.926 113.015 53.9993 113.246 53.9993 113.517C53.9993 113.726 53.9418 113.907 53.8268 114.062C53.7135 114.217 53.5526 114.337 53.3443 114.422C53.136 114.508 52.891 114.55 52.6093 114.55ZM52.2968 110.367H52.9293V111.017H52.2968V110.367ZM52.2843 114.327H52.9143V114.978H52.2843V114.327ZM55.1051 114.5V111.792H54.4601V111.38C54.6668 111.38 54.8335 111.361 54.9601 111.322C55.0885 111.282 55.1843 111.226 55.2476 111.152C55.311 111.077 55.3485 110.988 55.3601 110.885H55.8451V114.5H55.1051ZM57.9988 110.835C58.4288 110.835 58.768 110.996 59.0163 111.317C59.2646 111.637 59.3888 112.098 59.3888 112.7C59.3888 113.298 59.2663 113.757 59.0213 114.077C58.7763 114.396 58.4355 114.555 57.9988 114.555C57.5605 114.555 57.218 114.396 56.9713 114.077C56.7263 113.759 56.6038 113.301 56.6038 112.702C56.6038 112.302 56.6605 111.963 56.7738 111.685C56.8871 111.407 57.048 111.196 57.2563 111.052C57.4646 110.907 57.7121 110.835 57.9988 110.835ZM57.9988 113.957C58.2138 113.957 58.3713 113.862 58.4713 113.67C58.5713 113.477 58.6213 113.154 58.6213 112.702C58.6213 112.241 58.5705 111.91 58.4688 111.71C58.3671 111.51 58.2096 111.41 57.9963 111.41C57.783 111.41 57.6238 111.511 57.5188 111.712C57.4155 111.914 57.3638 112.244 57.3638 112.702C57.3638 113.152 57.4155 113.474 57.5188 113.667C57.6221 113.861 57.7821 113.957 57.9988 113.957ZM61.4494 110.885H62.1669V113.088H62.7244V113.7H62.1669V114.5H61.4644L61.4669 113.7H59.8019V113.1L61.4494 110.885ZM60.4769 113.088H61.4669V111.762L60.4769 113.088ZM63.1157 114.5V113.705H63.9157V114.5H63.1157ZM65.7633 114.555C65.5383 114.555 65.3283 114.512 65.1333 114.425C64.9383 114.338 64.7792 114.217 64.6558 114.06C64.5325 113.902 64.4633 113.717 64.4483 113.505H65.1433C65.1733 113.645 65.24 113.759 65.3433 113.847C65.4467 113.934 65.5767 113.977 65.7333 113.977C65.9067 113.977 66.0583 113.937 66.1883 113.855C66.32 113.773 66.4183 113.643 66.4833 113.465C66.55 113.287 66.5733 113.053 66.5533 112.765C66.5067 112.853 66.4417 112.931 66.3583 112.997C66.2767 113.062 66.1808 113.113 66.0708 113.15C65.9608 113.185 65.8383 113.202 65.7033 113.202C65.4583 113.202 65.2408 113.157 65.0508 113.065C64.8625 112.972 64.7142 112.84 64.6058 112.67C64.4992 112.498 64.4458 112.295 64.4458 112.06C64.4458 111.823 64.5025 111.612 64.6158 111.427C64.7292 111.242 64.8875 111.097 65.0908 110.992C65.2942 110.887 65.5325 110.835 65.8058 110.835C66.1125 110.835 66.3767 110.908 66.5983 111.055C66.8217 111.2 66.9925 111.407 67.1108 111.675C67.2308 111.942 67.2908 112.256 67.2908 112.617C67.2908 113.049 67.2292 113.409 67.1058 113.697C66.9842 113.984 66.8092 114.199 66.5808 114.342C66.3525 114.484 66.08 114.555 65.7633 114.555ZM65.8283 112.622C65.93 112.622 66.0283 112.6 66.1233 112.555C66.22 112.508 66.2992 112.45 66.3608 112.38C66.4225 112.31 66.4533 112.237 66.4533 112.162C66.455 112.001 66.4292 111.862 66.3758 111.747C66.3242 111.631 66.2508 111.542 66.1558 111.48C66.0625 111.418 65.9533 111.387 65.8283 111.387C65.7133 111.387 65.6108 111.414 65.5208 111.467C65.4308 111.521 65.36 111.596 65.3083 111.692C65.2567 111.789 65.2308 111.901 65.2308 112.027C65.2308 112.216 65.2858 112.362 65.3958 112.467C65.5058 112.571 65.65 112.622 65.8283 112.622ZM69.1121 110.835C69.5421 110.835 69.8812 110.996 70.1296 111.317C70.3779 111.637 70.5021 112.098 70.5021 112.7C70.5021 113.298 70.3796 113.757 70.1346 114.077C69.8896 114.396 69.5487 114.555 69.1121 114.555C68.6737 114.555 68.3312 114.396 68.0846 114.077C67.8396 113.759 67.7171 113.301 67.7171 112.702C67.7171 112.302 67.7737 111.963 67.8871 111.685C68.0004 111.407 68.1612 111.196 68.3696 111.052C68.5779 110.907 68.8254 110.835 69.1121 110.835ZM69.1121 113.957C69.3271 113.957 69.4846 113.862 69.5846 113.67C69.6846 113.477 69.7346 113.154 69.7346 112.702C69.7346 112.241 69.6837 111.91 69.5821 111.71C69.4804 111.51 69.3229 111.41 69.1096 111.41C68.8962 111.41 68.7371 111.511 68.6321 111.712C68.5287 111.914 68.4771 112.244 68.4771 112.702C68.4771 113.152 68.5287 113.474 68.6321 113.667C68.7354 113.861 68.8954 113.957 69.1121 113.957ZM70.9947 114.5V113.91H71.5447V114.5H70.9947Z" fill="#36536B"/>
<path fill-rule="evenodd" clip-rule="evenodd" d="M19.9089 92.2277V90.7408L21.1203 88.6914H20.3521L19.5597 90.1245L18.7577 88.6914H17.9967L19.2057 90.7384V92.2277H19.9089ZM22.5364 92.2766C22.7901 92.2766 23.0065 92.2212 23.1855 92.1103C23.3645 91.9995 23.5018 91.8466 23.5973 91.6518C23.6929 91.457 23.7406 91.2324 23.7406 90.978C23.7406 90.7074 23.6916 90.4726 23.5937 90.2737C23.4958 90.0748 23.3569 89.9211 23.1771 89.8127C22.9972 89.7043 22.7845 89.6501 22.5389 89.6501C22.2932 89.6501 22.0801 89.7055 21.8994 89.8164C21.7188 89.9272 21.5791 90.0821 21.4804 90.281C21.3816 90.4799 21.3323 90.7123 21.3323 90.978C21.3323 91.2438 21.3816 91.4737 21.4804 91.6677C21.5791 91.8617 21.7188 92.0117 21.8994 92.1177C22.0801 92.2236 22.2924 92.2766 22.5364 92.2766ZM22.2282 91.631C22.3036 91.7076 22.4072 91.7459 22.5389 91.7459C22.6625 91.7459 22.762 91.7093 22.8375 91.6359C22.9129 91.5625 22.9679 91.4659 23.0025 91.3461C23.037 91.2263 23.0542 91.0954 23.0542 90.9536C23.0542 90.8199 23.0386 90.6935 23.0073 90.5745C22.976 90.4555 22.9226 90.3593 22.8471 90.2859C22.7717 90.2126 22.6689 90.1759 22.5389 90.1759C22.4152 90.1759 22.3153 90.2105 22.239 90.2798C22.1627 90.3491 22.107 90.4429 22.0716 90.5611C22.0363 90.6793 22.0186 90.8101 22.0186 90.9536C22.0186 91.0856 22.0347 91.2124 22.0668 91.3339C22.0989 91.4553 22.1527 91.5544 22.2282 91.631ZM25.1254 92.2766C25.2234 92.2766 25.3233 92.2616 25.4253 92.2314C25.5272 92.2012 25.6179 92.1466 25.6974 92.0675C25.7769 91.9885 25.8311 91.8747 25.86 91.7264L25.9418 92.2277H26.4717V89.699H25.7757V91.3449C25.7757 91.4753 25.7351 91.5768 25.6541 91.6493C25.573 91.7219 25.4634 91.7582 25.3253 91.7582C25.1792 91.7582 25.0684 91.7207 24.993 91.6457C24.9175 91.5707 24.8798 91.4745 24.8798 91.3571V89.699H24.1765V91.4476C24.1765 91.5829 24.2042 91.7019 24.2596 91.8046C24.315 91.9074 24.3885 91.9938 24.48 92.0639C24.5715 92.134 24.673 92.187 24.7846 92.2228C24.8962 92.2587 25.0098 92.2766 25.1254 92.2766ZM27.7457 90.8435V92.2277H27.0425V89.699H27.7192V90.2982C27.7593 90.1694 27.8159 90.0565 27.889 89.9594C27.9621 89.8624 28.0508 89.7866 28.1551 89.732C28.2595 89.6774 28.3775 89.6501 28.5091 89.6501C28.5316 89.6501 28.5529 89.6513 28.573 89.6537C28.593 89.6562 28.6079 89.6599 28.6175 89.6647V90.3446C28.6031 90.3381 28.5858 90.334 28.5657 90.3324C28.5457 90.3308 28.5276 90.3291 28.5116 90.3275C28.3735 90.3161 28.2555 90.3202 28.1575 90.3397C28.0596 90.3593 27.9801 90.3927 27.9191 90.44C27.8581 90.4873 27.8139 90.5452 27.7866 90.6136C27.7593 90.6821 27.7457 90.7587 27.7457 90.8435ZM30.5587 92.2277L30.8501 91.4085H32.1024L32.3866 92.2277H33.0874L31.8423 88.6914H31.1005L29.853 92.2277H30.5587ZM31.0066 90.7848H31.9338L31.4738 89.3811L31.0066 90.7848ZM34.2242 93.0152V91.8487C34.2595 91.909 34.3008 91.9648 34.3482 92.0162C34.3956 92.0675 34.4493 92.1128 34.5096 92.1519C34.5698 92.191 34.6352 92.2216 34.7058 92.2436C34.7765 92.2656 34.8519 92.2766 34.9322 92.2766C35.1281 92.2766 35.3039 92.2294 35.4596 92.1348C35.6154 92.0402 35.7378 91.8947 35.8269 91.6983C35.916 91.5018 35.9606 91.2503 35.9606 90.9438C35.9606 90.6487 35.9192 90.4054 35.8366 90.2138C35.7539 90.0222 35.6403 89.8804 35.4958 89.7883C35.3513 89.6961 35.1867 89.6501 35.0021 89.6501C34.917 89.6501 34.8359 89.6603 34.7588 89.6806C34.6817 89.701 34.6103 89.73 34.5445 89.7675C34.4786 89.805 34.4188 89.8486 34.365 89.8983C34.3113 89.948 34.2659 90.0031 34.229 90.0634L34.2266 89.699H33.5209V93.0152H34.2242ZM34.4614 91.6408C34.5409 91.7158 34.6416 91.7533 34.7636 91.7533C34.9162 91.7533 35.0442 91.6889 35.1478 91.5601C35.2513 91.4313 35.3031 91.2275 35.3031 90.9487C35.3031 90.7041 35.2537 90.513 35.155 90.3752C35.0562 90.2374 34.9258 90.1685 34.7636 90.1685C34.5822 90.1685 34.4469 90.2431 34.3578 90.3923C34.2687 90.5415 34.2242 90.7269 34.2242 90.9487C34.2242 91.0905 34.2438 91.2226 34.2832 91.3449C34.3225 91.4671 34.3819 91.5658 34.4614 91.6408ZM37.131 93.0152V91.8487C37.1664 91.909 37.2077 91.9648 37.2551 92.0162C37.3024 92.0675 37.3562 92.1128 37.4164 92.1519C37.4766 92.191 37.5421 92.2216 37.6127 92.2436C37.6834 92.2656 37.7588 92.2766 37.8391 92.2766C38.035 92.2766 38.2108 92.2294 38.3665 92.1348C38.5223 92.0402 38.6447 91.8947 38.7338 91.6983C38.8229 91.5018 38.8675 91.2503 38.8675 90.9438C38.8675 90.6487 38.8261 90.4054 38.7434 90.2138C38.6607 90.0222 38.5471 89.8804 38.4026 89.7883C38.2581 89.6961 38.0936 89.6501 37.9089 89.6501C37.8238 89.6501 37.7428 89.6603 37.6657 89.6806C37.5886 89.701 37.5172 89.73 37.4513 89.7675C37.3855 89.805 37.3257 89.8486 37.2719 89.8983C37.2181 89.948 37.1728 90.0031 37.1359 90.0634L37.1334 89.699H36.4278V93.0152H37.131ZM37.3683 91.6408C37.4477 91.7158 37.5485 91.7533 37.6705 91.7533C37.823 91.7533 37.9511 91.6889 38.0546 91.5601C38.1582 91.4313 38.21 91.2275 38.21 90.9487C38.21 90.7041 38.1606 90.513 38.0619 90.3752C37.9631 90.2374 37.8327 90.1685 37.6705 90.1685C37.4891 90.1685 37.3538 90.2431 37.2647 90.3923C37.1756 90.5415 37.131 90.7269 37.131 90.9487C37.131 91.0905 37.1507 91.2226 37.19 91.3449C37.2294 91.4671 37.2888 91.5658 37.3683 91.6408Z" fill="#BA4270"/>
<path opacity="0.5" fill-rule="evenodd" clip-rule="evenodd" d="M88.5528 92.1739C88.446 92.2424 88.2947 92.2766 88.0988 92.2766C87.9752 92.2766 87.8592 92.262 87.7508 92.2326C87.6424 92.2033 87.5706 92.1813 87.5353 92.1666L87.5666 91.7337C87.6164 91.7516 87.6738 91.7741 87.7388 91.801C87.8038 91.8279 87.8845 91.8413 87.9808 91.8413C88.1382 91.8413 88.2461 91.7973 88.3047 91.7093C88.3633 91.6212 88.3927 91.4729 88.3927 91.2642V88.6914H88.8382V91.3938C88.8382 91.5813 88.8173 91.7411 88.7756 91.8731C88.7338 92.0052 88.6596 92.1054 88.5528 92.1739ZM90.8191 92.2241C90.7171 92.2607 90.6075 92.2783 90.4903 92.2766C90.3603 92.275 90.2378 92.2558 90.123 92.2192C90.0083 92.1825 89.9067 92.1283 89.8184 92.0565C89.7301 91.9848 89.6606 91.8955 89.6101 91.7887C89.5595 91.6819 89.5342 91.5576 89.5342 91.4158V89.699H89.9798V91.3693C89.9798 91.534 90.0299 91.6677 90.1303 91.7704C90.2306 91.8731 90.3819 91.9245 90.5842 91.9245C90.7673 91.9245 90.9146 91.876 91.0262 91.779C91.1378 91.6819 91.1936 91.5373 91.1936 91.3449V89.699H91.6367V92.2277H91.2827L91.2369 91.7435C91.2064 91.8707 91.1546 91.9734 91.0816 92.0516C91.0085 92.1299 90.921 92.1874 90.8191 92.2241ZM93.2166 92.2766C93.4189 92.2766 93.5911 92.2461 93.7332 92.1849C93.8753 92.1238 93.9844 92.0374 94.0607 91.9257C94.137 91.814 94.1751 91.6807 94.1751 91.5258C94.1751 91.4639 94.1659 91.3991 94.1474 91.3314C94.1289 91.2638 94.0976 91.1989 94.0535 91.137C94.0093 91.075 93.9499 91.0188 93.8753 90.9682C93.8006 90.9177 93.7055 90.8769 93.5899 90.846L93.0913 90.7188C92.9533 90.6846 92.8489 90.6418 92.7783 90.5904C92.7076 90.539 92.6723 90.4685 92.6723 90.3789C92.6723 90.2435 92.7221 90.1437 92.8216 90.0793C92.9211 90.0149 93.0504 89.9827 93.2093 89.9827C93.3619 89.9827 93.4835 90.0181 93.5742 90.0891C93.6649 90.16 93.7183 90.2558 93.7344 90.3764H94.1269C94.1205 90.1384 94.0342 89.9578 93.868 89.8347C93.7019 89.7116 93.4839 89.6501 93.2142 89.6501C93.0038 89.6501 92.828 89.6827 92.6867 89.7479C92.5454 89.8131 92.4395 89.902 92.3688 90.0145C92.2982 90.127 92.2637 90.2574 92.2653 90.4058C92.2653 90.5933 92.3255 90.7392 92.4459 90.8435C92.5663 90.9479 92.7269 91.0245 92.9276 91.0734L93.443 91.203C93.5553 91.2291 93.6384 91.2703 93.6922 91.3265C93.746 91.3828 93.7729 91.4574 93.7729 91.5503C93.7729 91.6824 93.7215 91.7802 93.6188 91.8438C93.516 91.9074 93.3811 91.9391 93.2142 91.9391C93.1098 91.9391 93.0135 91.9224 92.9252 91.889C92.8369 91.8556 92.7634 91.8059 92.7048 91.7398C92.6462 91.6738 92.6057 91.5911 92.5832 91.4916H92.1786C92.2043 91.6726 92.2661 91.8213 92.364 91.9379C92.462 92.0545 92.5852 92.1401 92.7337 92.1947C92.8822 92.2493 93.0432 92.2766 93.2166 92.2766ZM95.9705 92.2277C95.9087 92.2359 95.832 92.24 95.7405 92.24C95.5687 92.24 95.4355 92.2163 95.3407 92.169C95.246 92.1217 95.1798 92.0516 95.142 91.9587C95.1043 91.8658 95.0855 91.7516 95.0855 91.6163V90.0291H94.6809V89.699H95.0975L95.2059 88.9629H95.5334V89.6965H96.0946V90.0291H95.5334V91.6017C95.5334 91.6913 95.5426 91.7569 95.5611 91.7985C95.5796 91.8401 95.6109 91.8666 95.655 91.878C95.6992 91.8894 95.7598 91.8951 95.8369 91.8951H96.109V92.1984C96.0785 92.2098 96.0323 92.2196 95.9705 92.2277ZM98.3825 92.2277V89.4398L100.251 92.2277H100.649V88.6914H100.203V91.4402L98.3632 88.6914H97.9369V92.2277H98.3825ZM103.09 92.1116C102.922 92.2216 102.714 92.2766 102.467 92.2766C102.237 92.2766 102.037 92.2265 101.865 92.1262C101.693 92.026 101.56 91.8788 101.465 91.6848C101.37 91.4908 101.323 91.2536 101.323 90.9731C101.323 90.709 101.367 90.4775 101.456 90.2786C101.544 90.0797 101.673 89.9252 101.844 89.8152C102.015 89.7051 102.223 89.6501 102.467 89.6501C102.697 89.6501 102.896 89.701 103.066 89.8029C103.235 89.9048 103.366 90.0544 103.459 90.2517C103.552 90.449 103.599 90.6894 103.599 90.9731C103.599 91.2307 103.556 91.4574 103.47 91.653C103.384 91.8487 103.257 92.0015 103.09 92.1116ZM102.467 91.9196C102.302 91.9196 102.168 91.8772 102.065 91.7924C101.962 91.7076 101.887 91.5927 101.838 91.4476C101.79 91.3025 101.766 91.1411 101.766 90.9634C101.766 90.7628 101.793 90.5908 101.847 90.4473C101.901 90.3039 101.98 90.1942 102.084 90.1184C102.188 90.0426 102.316 90.0047 102.467 90.0047C102.631 90.0047 102.764 90.0471 102.866 90.1319C102.968 90.2166 103.042 90.3312 103.088 90.4755C103.135 90.6198 103.158 90.7824 103.158 90.9634C103.158 91.1606 103.132 91.331 103.079 91.4745C103.026 91.618 102.948 91.728 102.845 91.8046C102.742 91.8813 102.616 91.9196 102.467 91.9196ZM105.699 90.3617L105.16 92.2277H104.724L103.955 89.699H104.367L104.938 91.6432H104.977L105.538 89.699H105.875L106.458 91.6383H106.496L107.043 89.699H107.46L106.706 92.2277H106.267L105.699 90.3617Z" fill="#36536B"/>
</g>
<defs>
<filter id="filter0_d_0_892" x="5.24426" y="75" width="135.004" height="72.5532" filterUnits="userSpaceOnUse" color-interpolation-filters="sRGB">
<feFlood flood-opacity="0" result="BackgroundImageFix"/>
<feColorMatrix in="SourceAlpha" type="matrix" values="0 0 0 0 0 0 0 0 0 0 0 0 0 0 0 0 0 0 127 0" result="hardAlpha"/>
<feMorphology radius="10" operator="erode" in="SourceAlpha" result="effect1_dropShadow_0_892"/>
<feOffset dx="10" dy="10"/>
<feGaussianBlur stdDeviation="12.5"/>
<feColorMatrix type="matrix" values="0 0 0 0 0.212302 0 0 0 0 0.32521 0 0 0 0 0.419299 0 0 0 0.25 0"/>
<feBlend mode="normal" in2="BackgroundImageFix" result="effect1_dropShadow_0_892"/>
<feBlend mode="normal" in="SourceGraphic" in2="effect1_dropShadow_0_892" result="shape"/>
</filter>
<linearGradient id="paint0_linear_0_892" x1="4.84363" y1="0" x2="4.84363" y2="5.91549" gradientUnits="userSpaceOnUse">
<stop stop-color="#454545"/>
<stop offset="0.226279" stop-color="#999999"/>
<stop offset="1" stop-color="white"/>
</linearGradient>
<linearGradient id="paint1_linear_0_892" x1="125.799" y1="41.1589" x2="121.223" y2="41.1589" gradientUnits="userSpaceOnUse">
<stop stop-color="white" stop-opacity="0.01"/>
<stop offset="0.222178" stop-color="#BABABA"/>
<stop offset="0.54678" stop-color="white" stop-opacity="0.01"/>
<stop offset="1" stop-color="white" stop-opacity="0.01"/>
</linearGradient>
<linearGradient id="paint2_linear_0_892" x1="1.24195" y1="41.0338" x2="5.82505" y2="41.0338" gradientUnits="userSpaceOnUse">
<stop stop-color="white" stop-opacity="0.01"/>
<stop offset="0.222178" stop-color="#BABABA"/>
<stop offset="0.54678" stop-color="white" stop-opacity="0.01"/>
<stop offset="1" stop-color="white" stop-opacity="0.01"/>
</linearGradient>
<linearGradient id="paint3_linear_0_892" x1="7.43986" y1="6" x2="7.43986" y2="227.264" gradientUnits="userSpaceOnUse">
<stop stop-color="#9CB6CD"/>
<stop offset="0.420564" stop-color="#9AB3CA"/>
<stop offset="0.716592" stop-color="#557496"/>
<stop offset="1" stop-color="#475178"/>
</linearGradient>
<clipPath id="clip0_0_892">
<rect width="105" height="43" fill="white" transform="translate(10.2443 80)"/>
</clipPath>
</defs>
</svg>
